<?xml version="1.0" standalone="no"?>
<!DOCTYPE svg PUBLIC "-//W3C//DTD SVG 1.1//EN" "http://www.w3.org/Graphics/SVG/1.1/DTD/svg11.dtd" >
<svg>
    <metadata>
        Created by FontForge 20090914 at Sun Jun 25 07:32:23 2017
        By www-data
        Copyright (c) 2011 by Vissol Ltd. All rights reserved.
    </metadata>
    <defs>
        <font id="MavenProBold" horiz-adv-x="1441">
            <font-face
                    font-family="Maven Pro"
                    font-weight="700"
                    font-stretch="normal"
                    units-per-em="2048"
                    panose-1="2 0 0 0 0 0 0 0 0 0"
                    ascent="1638"
                    descent="-410"
                    x-height="1022"
                    cap-height="1366"
                    bbox="-76 -430 2021 1776"
                    underline-thickness="102"
                    underline-position="-102"
                    unicode-range="U+0020-U+FB04"
            />
            <missing-glyph horiz-adv-x="1024"
            />
            <glyph glyph-name=".notdef" horiz-adv-x="1024"
            />
            <glyph glyph-name="space" unicode=" " horiz-adv-x="692"
            />
            <glyph glyph-name="exclam" unicode="!" horiz-adv-x="825"
                   d="M283 1366h280l-45 -973h-190zM303 0v227h240v-227h-240z"/>
            <glyph glyph-name="quotedbl" unicode="&#x22;" horiz-adv-x="825"
                   d="M166 1384h205l-35 -411h-133zM461 1384h205l-35 -411h-133z"/>
            <glyph glyph-name="numbersign" unicode="#" horiz-adv-x="1216"
                   d="M152 256v152h180l51 292h-174v152h201l36 217h162l-39 -217h232l39 217h159l-38 -217h133v-152h-158l-51 -292h153v-152h-178l-39 -217h-162l39 217h-231l-37 -217h-162l39 217h-155zM494 408h231l49 292h-229z"/>
            <glyph glyph-name="dollar" unicode="$" horiz-adv-x="1181"
                   d="M150 987c0 116 37.168 207.171 111.501 273.504s170.833 106.166 289.5 119.499v209h119v-207c112 -4 223.333 -34.667 334 -92v-239c-106.667 68 -218 102.667 -334 104v-340c49.333 -15.333 89.333 -28.333 120 -39s67.167 -28.334 109.5 -53.001
s75.666 -51.667 99.999 -81s45.5 -68 63.5 -116s27 -102.667 27 -164c0 -102.667 -40.333 -188.334 -121 -257.001s-180.334 -107.667 -299.001 -117v-209h-119v209c-146 9.33301 -273.667 47.333 -383 114v250c116 -86 243.667 -129.667 383 -131v379
c-50.667 15.333 -89.667 27.666 -117 36.999s-62.166 25 -104.499 47s-74.333 45.333 -96 70s-41 57 -58 97s-25.5 85.333 -25.5 136zM395.001 993.004c0 -35.333 13 -63.5 39 -84.5s65 -40.5 117 -58.5v293c-104 -22 -156 -72 -156 -150zM670.001 229.004
c116 18 174 68 174 150c0 80.667 -58 142 -174 184v-334z"/>
            <glyph glyph-name="percent" unicode="%" horiz-adv-x="1777"
                   d="M145 983c0 251.333 96.333 377 289 377c194 0 291 -125.667 291 -377s-97 -377 -291 -377c-192.667 0 -289 125.667 -289 377zM305 983c0 -88.667 12 -148.334 36 -179.001s55.167 -46 93.5 -46s69.333 15.333 93 46s35.5 90.334 35.5 179.001
c0 90 -11.833 150 -35.5 180s-54.667 45 -93 45s-69.5 -15 -93.5 -45s-36 -90 -36 -180zM381 0l858 1366h174l-858 -1366h-174zM1065 383c0 251.333 96.333 377 289 377c194 0 291 -125.667 291 -377s-97 -377 -291 -377c-192.667 0 -289 125.667 -289 377zM1225 383
c0 -88.667 11.833 -148.334 35.5 -179.001s54.667 -46 93 -46s69.5 15.333 93.5 46s36 90.334 36 179.001c0 90 -12 150 -36 180s-55.167 45 -93.5 45s-69.333 -15 -93 -45s-35.5 -90 -35.5 -180z"/>
            <glyph glyph-name="ampersand" unicode="&#x26;" horiz-adv-x="1310"
                   d="M113 389c0 35.333 2.33398 66.6709 7.00098 94.0039s15.167 59.5 31.5 96.5s42.666 73.167 78.999 108.5s82.5 69.666 138.5 102.999c-83.333 87.333 -125 170.333 -125 249c0 91.333 28.333 169.833 85 235.5s136.667 98.5 240 98.5c92.667 0 170.167 -30.667 232.5 -92
s93.5 -137 93.5 -227c0 -69.333 -16.667 -127.333 -50 -174s-91 -97.334 -173 -152.001l229 -274c19.333 48 33.666 99.667 42.999 155h201c-19.333 -120 -55.666 -226.333 -108.999 -319l244 -291h-262l-105 129c-101.333 -96.667 -222.666 -145 -363.999 -145
c-75.333 0 -142.333 13.667 -201 41s-104.334 61.666 -137.001 102.999s-57.167 84.666 -73.5 129.999s-24.5 89 -24.5 131zM307.001 383.005c0 -26 5.83203 -53.665 17.499 -82.998s37.334 -58.333 77.001 -87s90.167 -43 151.5 -43c90 0 170.667 35.333 242 106l-301 361
c-44 -23.333 -80 -47.333 -108 -72s-47.167 -48.834 -57.5 -72.501s-16.5 -42.334 -18.5 -56.001s-3 -31.5 -3 -53.5zM438 1059.01c0 -9.33301 1.83398 -19.8301 5.50098 -31.4971s7.16699 -21.334 10.5 -29.001s9.33301 -18.334 18 -32.001s15.167 -22.834 19.5 -27.501
s12.666 -14.5 24.999 -29.5s19.833 -23.833 22.5 -26.5c64 38 107.167 70.333 129.5 97s33.5 55.667 33.5 87c0 35.333 -12.5 65.333 -37.5 90s-56 37 -93 37s-68.5 -13 -94.5 -39s-39 -58 -39 -96z"/>
            <glyph glyph-name="quotesingle" unicode="'" horiz-adv-x="534"
                   d="M166 1384h205l-35 -411h-133z"/>
            <glyph glyph-name="parenleft" unicode="(" horiz-adv-x="751"
                   d="M190 627c0 293.333 70.333 578.666 211 855.999h213c-140.667 -277.333 -211 -562.666 -211 -855.999c0 -290.667 70.333 -576.667 211 -858h-213c-140.667 281.333 -211 567.333 -211 858z"/>
            <glyph glyph-name="parenright" unicode=")" horiz-adv-x="751"
                   d="M133 -231c140.667 274.667 211 560.667 211 858c0 299.333 -70.333 584.666 -211 855.999h213c140.667 -277.333 211 -562.666 211 -855.999c0 -290.667 -70.333 -576.667 -211 -858h-213z"/>
            <glyph glyph-name="asterisk" unicode="*" horiz-adv-x="845"
                   d="M172 1133l166 57l-166 57l78 139l123 -104l-25 156h160l-25 -156l123 104l78 -139l-166 -57l166 -57l-78 -140l-123 105l25 -156h-160l25 156l-123 -105z"/>
            <glyph glyph-name="plus" unicode="+" horiz-adv-x="1128"
                   d="M199 520v182h272v275h182v-275h273v-182h-273v-270h-182v270h-272z"/>
            <glyph glyph-name="comma" unicode="," horiz-adv-x="677"
                   d="M152 -229l151 401h215l-182 -401h-184z"/>
            <glyph glyph-name="hyphen" unicode="-" horiz-adv-x="950"
                   d="M162 514v193h624v-193h-624z"/>
            <glyph glyph-name="period" unicode="." horiz-adv-x="759"
                   d="M260 0v227h240v-227h-240z"/>
            <glyph glyph-name="slash" unicode="/" horiz-adv-x="897"
                   d="M-29 -201l752 1749h205l-754 -1749h-203z"/>
            <glyph glyph-name="zero" unicode="0" horiz-adv-x="1345"
                   d="M133 677.5c0 467 179.5 700.5 538.5 700.5s538.5 -233.5 538.5 -700.5s-179.5 -700.5 -538.5 -700.5s-538.5 233.5 -538.5 700.5zM379 678c0 -104 8.16797 -190.833 24.501 -260.5s40.166 -120.5 71.499 -152.5s62 -53.5 92 -64.5s64.833 -16.5 104.5 -16.5
s74.5 5.5 104.5 16.5s60.667 32.5 92 64.5s55.333 82.833 72 152.5s25 156.5 25 260.5c0 83.333 -5.83301 156 -17.5 218s-26.834 110.167 -45.501 144.5s-41.5 61.666 -68.5 81.999s-52.833 33.5 -77.5 39.5s-52.667 9 -84 9s-59.333 -3 -84 -9s-50.667 -19.167 -78 -39.5
s-50.166 -47.666 -68.499 -81.999s-33.333 -82.5 -45 -144.5s-17.5 -134.667 -17.5 -218z"/>
            <glyph glyph-name="one" unicode="1" horiz-adv-x="993"
                   d="M211 936v262l266 168h223v-1366h-245v1085z"/>
            <glyph glyph-name="two" unicode="2" horiz-adv-x="1226"
                   d="M158 0l-0.00195312 201.002c62.667 46.667 126.834 98.167 192.501 154.5s134 120.666 205 192.999s129 146.5 174 222.5s67.5 144 67.5 204c0 46.667 -18.833 85.667 -56.5 117s-99.5 47 -185.5 47c-66.667 0 -135.167 -11.333 -205.5 -34s-130.166 -51 -179.499 -85
v244c130 80 260.667 120 392 120h3c161.333 0 280.833 -40.167 358.5 -120.5s116.5 -176.5 116.5 -288.5c0 -121.333 -45.667 -245.833 -137 -373.5s-203.333 -246.834 -336 -357.501h494v-244h-903z"/>
            <glyph glyph-name="three" unicode="3" horiz-adv-x="1228"
                   d="M166 84l0.000976562 249.999c120 -70.667 244.333 -106.334 373 -107.001c193.333 0 290 62.667 290 188c0 60.667 -22.833 110.5 -68.5 149.5s-122.5 58.5 -230.5 58.5h-174v202h181c76.667 0 133.667 15.833 171 47.5s56 70.5 56 116.5
c0 54.667 -24.333 93.334 -73 116.001s-105 34 -169 34c-118.667 0 -227.667 -30 -327 -90v251c118.667 56 232.667 84 342 84c136.667 0 249.667 -30.667 339 -92s134 -159.666 134 -294.999c0 -112 -56 -198.667 -168 -260c69.333 -24.667 125.166 -65 167.499 -121
s63.5 -124 63.5 -204c0 -64 -10.833 -121.333 -32.5 -172s-50 -91.667 -85 -123s-76 -57.333 -123 -78s-93 -35 -138 -43s-91.5 -12 -139.5 -12c-135.333 0 -265 33.333 -389 100z"/>
            <glyph glyph-name="four" unicode="4" horiz-adv-x="1234"
                   d="M78 385v203l622 778h234v-762h178v-219h-178v-385h-246v385h-610zM365 604h323v420z"/>
            <glyph glyph-name="five" unicode="5" horiz-adv-x="1245"
                   d="M170 709l74.002 656.999h751v-244h-542c-2.66699 -34 -6.83398 -76.167 -12.501 -126.5s-9.83398 -91.5 -12.501 -123.5c64 12 125.333 18 184 18c1.33301 0.666992 2.66602 1 3.99902 1c57.333 0 110 -6.33301 158 -19c49.333 -13.333 98.166 -35.666 146.499 -66.999
s86.166 -78.5 113.499 -141.5s41 -138.833 41 -227.5c0 -90 -13.667 -166.333 -41 -229s-64.166 -109.5 -110.499 -140.5s-94 -52.833 -143 -65.5s-103.167 -19 -162.5 -19c-151.333 0 -289.666 32 -414.999 96v248c126.667 -80.667 260.334 -121 401.001 -121
c151.333 0 227 70.333 227 211v20c-6.66699 146 -81 220.333 -223 223h-9c-116 0 -213.333 -24.333 -292 -73z"/>
            <glyph glyph-name="six" unicode="6" horiz-adv-x="1222"
                   d="M131 629c0 130 16.333 243.334 49 340.001s71.667 170.667 117 222s99.333 92.333 162 123s116.834 50 162.501 58s92.5 12 140.5 12c66.667 0 145 -12.667 235 -38v-218c-54.667 18 -128.334 27 -221.001 27c-31.333 0 -64 -4.16699 -98 -12.5
s-71.833 -22.333 -113.5 -42s-79 -51.667 -112 -96s-54.833 -97.833 -65.5 -160.5c60 46 143.333 69 250 69c147.333 0 261.333 -40.167 342 -120.5s121 -190.833 121 -331.5c0 -57.333 -8.83301 -113 -26.5 -167s-44.667 -104.833 -81 -152.5s-87 -85.834 -152 -114.501
s-139.833 -43 -224.5 -43c-323.333 0 -485 215 -485 645zM379 623.001c-0.666992 -12.667 -1.00098 -25.332 -1.00098 -37.999c0 -68.667 6.66699 -128.334 20 -179.001c14.667 -60.667 36 -104.667 64 -132s54.167 -46.333 78.5 -57s49.5 -16 75.5 -16
c50.667 0 93.5 10.5 128.5 31.5s59.333 47.833 73 80.5s22.834 60.667 27.501 84s7 45.333 7 66c0 69.333 -20.5 124.833 -61.5 166.5s-99.167 62.5 -174.5 62.5c-88.667 0 -167.667 -23 -237 -69z"/>
            <glyph glyph-name="seven" unicode="7" horiz-adv-x="1202"
                   d="M141 1120v246h965v-195l-563 -1171h-291l545 1120h-656z"/>
            <glyph glyph-name="eight" unicode="8" horiz-adv-x="1236"
                   d="M129 408c0 49.333 8.5 94.001 25.5 134.001s37.5 71.333 61.5 94s48.333 41.834 73 57.501s45.667 26.167 63 31.5l25 8c-5.33301 1.33301 -12.5 3.66602 -21.5 6.99902s-25.167 12.166 -48.5 26.499s-43.833 30.833 -61.5 49.5s-33.667 45.667 -48 81
s-21.5 75 -21.5 119c0 114.667 39.667 204.667 119 270s187.833 98 325.5 98s246.167 -32.667 325.5 -98s119 -155.333 119 -270c0 -125.333 -52.667 -214 -158 -266l-41 -17c6.66699 -1.33301 15.5 -4 26.5 -8s30.5 -14.167 58.5 -30.5s53 -35.833 75 -58.5
s41.833 -54.167 59.5 -94.5s26.5 -84.833 26.5 -133.5c0 -132.667 -43 -236.5 -129 -311.5s-206.833 -112.5 -362.5 -112.5s-276.5 37.5 -362.5 112.5s-129 178.833 -129 311.5zM375 416.001c0 -74 20.5 -132.499 61.5 -175.499s102.333 -64.5 184 -64.5
s143 21.167 184 63.5s61.5 101.166 61.5 176.499c0 54.667 -21.167 101.667 -63.5 141s-103 59 -182 59s-139.667 -19.667 -182 -59s-63.5 -86.333 -63.5 -141zM422 1010c0 -65.333 19.833 -112.165 59.5 -140.498s86 -42.5 139 -42.5s99.333 14 139 42s59.5 75 59.5 141
c0 49.333 -17 90.666 -51 123.999s-83.167 50 -147.5 50s-113.5 -16.833 -147.5 -50.5s-51 -74.834 -51 -123.501z"/>
            <glyph glyph-name="nine" unicode="9" horiz-adv-x="1234"
                   d="M117 907c0 57.333 8.83105 112.999 26.498 166.999s44.667 104.833 81 152.5s86.833 85.834 151.5 114.501s139.334 43 224.001 43c323.333 0 485 -215 485 -645c0 -130 -16.333 -243.333 -49 -340s-71.5 -170.667 -116.5 -222s-98.833 -92.333 -161.5 -123
s-117 -50 -163 -58s-92.667 -12 -140 -12c-66.667 0 -145.334 13 -236.001 39v217c54.667 -18 128.334 -27 221.001 -27c31.333 0 64.166 4.16699 98.499 12.5s72.333 22.333 114 42s78.834 51.667 111.501 96s54.334 97.833 65.001 160.5
c-59.333 -46 -142.333 -69 -249 -69c-147.333 0 -261.333 40.167 -342 120.5s-121 190.833 -121 331.5zM364.998 904.999c0 -69.333 20.3359 -124.835 61.0029 -166.502s98.667 -62.5 174 -62.5c88.667 0 168 23 238 69c0.666992 12.667 1 25.334 1 38.001
c0 68.667 -6.33301 128.334 -19 179.001c-15.333 60.667 -37 104.667 -65 132s-54.333 46.333 -79 57s-50 16 -76 16c-50.667 0 -93.334 -10.5 -128.001 -31.5s-58.834 -47.833 -72.501 -80.5s-22.834 -60.667 -27.501 -84s-7 -45.333 -7 -66z"/>
            <glyph glyph-name="colon" unicode=":" horiz-adv-x="813"
                   d="M293 78v223h235v-223h-235zM293 723v223h235v-223h-235z"/>
            <glyph glyph-name="semicolon" unicode=";" horiz-adv-x="858"
                   d="M182 -229l152 401h215l-182 -401h-185zM322 723v223h235v-223h-235z"/>
            <glyph glyph-name="less" unicode="&#x3c;" horiz-adv-x="1351"
                   d="M246 477v148l850 379v-211l-617 -242l617 -242v-211z"/>
            <glyph glyph-name="equal" unicode="=" horiz-adv-x="1306"
                   d="M260 348v176h789v-176h-789zM260 698v176h789v-176h-789z"/>
            <glyph glyph-name="greater" unicode="&#x3e;" horiz-adv-x="1329"
                   d="M270 98v211l617 242l-617 242v211l850 -379v-148z"/>
            <glyph glyph-name="question" unicode="?" horiz-adv-x="1042"
                   d="M164 1059v227.003c100 64 207 96 321 96c76.667 0 143.334 -11.167 200.001 -33.5s100.667 -53 132 -92s54.5 -81 69.5 -126s22.5 -93.5 22.5 -145.5c0 -46.667 -7.5 -88.667 -22.5 -126s-33.667 -68 -56 -92s-46.5 -48.667 -72.5 -74l-73 -73
c-22.667 -22.667 -41.5 -51.834 -56.5 -87.501s-22.5 -75.167 -22.5 -118.5v-21h-217v27c0 69.333 10.333 130.666 31 183.999s46 95.666 76 126.999s59.667 60 89 86s54.166 53 74.499 81s30.5 57.667 30.5 89c0 121.333 -73.667 182 -221 182
c-120 0 -221.667 -36.667 -305 -110zM379 0.00292969v227h239v-227h-239z"/>
            <glyph glyph-name="at" unicode="@" horiz-adv-x="1869"
                   d="M170 371c0 122.667 26.332 239.001 78.999 349.001s121 202.167 205 276.5s178.167 133 282.5 176s207.833 64.5 310.5 64.5c56 0 114 -7.5 174 -22.5s121 -40 183 -75s117.167 -77.333 165.5 -127s88 -113.334 119 -191.001s46.5 -163.834 46.5 -258.501
c0 -138 -30.833 -258.833 -92.5 -362.5s-150.5 -155.5 -266.5 -155.5c-54.667 0 -97 18.167 -127 54.5s-47 68.833 -51 97.5c-18 -44 -51.833 -80.333 -101.5 -109s-111.5 -43 -185.5 -43c-102.667 0 -183.5 23.167 -242.5 69.5s-88.5 109.833 -88.5 190.5
c0 35.333 5.66699 68.5 17 99.5s32.166 62.5 62.499 94.5s77.833 57.5 142.5 76.5s144 28.5 238 28.5c30 0 68.333 -1.33301 115 -4c0 50.667 -11.333 88.667 -34 114s-69.334 38 -140.001 38c-110.667 0 -203.667 -14.333 -279 -43
c2.66699 19.333 7.16699 46.666 13.5 81.999s10.833 62.333 13.5 81c105.333 34 195.333 51.333 270 52c110.667 0 194.667 -25.667 252 -77s86 -126.666 86 -225.999c0 -34 -5.33301 -86 -16 -156s-16 -124 -16 -162c0 -88.667 30.667 -133 92 -133
c49.333 0 98.5 34.5 147.5 103.5s73.5 165.5 73.5 289.5c0 84.667 -17.833 162.834 -53.5 234.501s-81.5 130 -137.5 175s-117.667 80.167 -185 105.5s-134.666 38 -201.999 38c-196.667 0 -370.667 -74.667 -522 -224s-227 -325 -227 -527c0 -86 15.333 -163.833 46 -233.5
s67.834 -124 111.501 -163s92.167 -71.5 145.5 -97.5s100.5 -43.5 141.5 -52.5s76.5 -13.5 106.5 -13.5c174.667 0 329.667 33 465 99l-21 -131c-125.333 -56 -272.666 -84 -441.999 -84c-70.667 0 -143 12.5 -217 37.5s-146.167 62.833 -216.5 113.5
s-128 122.167 -173 214.5s-67.5 197.833 -67.5 316.5zM761.999 309.001c-0.666992 -53.333 49 -80 149 -80c79.333 0 134.333 16.833 165 50.5s48.667 92.167 54 175.5c-18 1.33301 -48 2 -90 2c-186 0 -278.667 -49.333 -278 -148z"/>
            <glyph glyph-name="A" unicode="A"
                   d="M43 0l543 1366h270l543 -1366h-264l-125 328h-578l-125 -328h-264zM516 551h408l-203 536z"/>
            <glyph glyph-name="B" unicode="B" horiz-adv-x="1323"
                   d="M178 0l0.000976562 1366h492c62.667 0 120.667 -6.5 174 -19.5s103.166 -33.5 149.499 -61.5s82.833 -68 109.5 -120s40 -113.333 40 -184c0 -120 -54 -208 -162 -264c158.667 -57.333 238 -162.666 238 -315.999c0 -36.667 -3.16699 -71 -9.5 -103
s-20.333 -67.167 -42 -105.5s-50 -70.833 -85 -97.5s-83.5 -49.167 -145.5 -67.5s-134.667 -27.5 -218 -27.5h-541zM424.001 214.999h283c177.333 0 266 66.333 266 199c0 118.667 -91.667 178 -275 178h-274v-377zM424.001 808.999h260c142 0 213 54.667 213 164
c0 120 -77 180 -231 180h-242v-344z"/>
            <glyph glyph-name="C" unicode="C" horiz-adv-x="1286"
                   d="M125 684c0 112 13 210.331 39 294.998s59.5 152.167 100.5 202.5s90.5 91.333 148.5 123s114.667 52.834 170 63.501s115 16 179 16c139.333 0 277.333 -27 414 -81v-230c-130 60 -260.667 90 -392 90c-61.333 0 -113.833 -5.5 -157.5 -16.5
s-86.334 -32.167 -128.001 -63.5s-73.334 -80.333 -95.001 -147s-32.5 -150.667 -32.5 -252s10.833 -185.333 32.5 -252s53.334 -115.667 95.001 -147s84.334 -52.5 128.001 -63.5s96.167 -16.5 157.5 -16.5c131.333 0 262 30 392 90v-229
c-136.667 -54.667 -274.667 -82 -414 -82c-64 0 -123.667 5.33301 -179 16s-112 31.834 -170 63.501s-107.5 72.667 -148.5 123s-74.5 117.833 -100.5 202.5s-39 183 -39 295z"/>
            <glyph glyph-name="D" unicode="D" horiz-adv-x="1419"
                   d="M178 0l0.000976562 1366h471c211.333 0 371.666 -58 480.999 -174s164 -286 164 -510c0 -222.667 -54.5 -392 -163.5 -508s-269.5 -174 -481.5 -174h-471zM424.001 223l225 -0.000976562c142 0 244.167 35.833 306.5 107.5s93.5 188.834 93.5 351.501
c0 164 -31.167 281.833 -93.5 353.5s-164.5 107.5 -306.5 107.5h-225v-920z"/>
            <glyph glyph-name="E" unicode="E" horiz-adv-x="1204"
                   d="M178 0v1366h909v-221h-663v-346h575v-232h-575v-346h663v-221h-909z"/>
            <glyph glyph-name="F" unicode="F" horiz-adv-x="1142"
                   d="M178 0v1366h883v-221h-637v-346h551v-232h-551v-567h-246z"/>
            <glyph glyph-name="G" unicode="G" horiz-adv-x="1406"
                   d="M125 682c0 112 13 210.33 39 294.997s59.5 152.167 100.5 202.5s90.5 91.333 148.5 123s114.667 52.834 170 63.501s115 16 179 16c144.667 0 294.667 -30.667 450 -92v-225c-147.333 65.333 -289.333 98 -426 98c-48 0 -90.333 -3 -127 -9s-73.667 -19 -111 -39
s-68.333 -47 -93 -81s-44.834 -80.667 -60.501 -140s-23.5 -129.333 -23.5 -210c0 -82 7.83301 -152.667 23.5 -212s35.834 -106 60.501 -140s55.667 -61 93 -81s74.5 -33 111.5 -39s79.167 -9 126.5 -9c75.333 0 156 11.667 242 35v327h-321v217h548v-682
c-158.667 -77.333 -321.667 -116 -489 -116h-4c-64 0 -123.667 5.33301 -179 16s-112 31.834 -170 63.501s-107.5 72.334 -148.5 122.001s-74.5 117.167 -100.5 202.5s-39 183.333 -39 294z"/>
            <glyph glyph-name="H" unicode="H" horiz-adv-x="1429"
                   d="M178 0v1366h246v-567h580v567h245v-1366h-245v567h-580v-567h-246z"/>
            <glyph glyph-name="I" unicode="I" horiz-adv-x="600"
                   d="M178 0v1366h246v-1366h-246z"/>
            <glyph glyph-name="J" unicode="J" horiz-adv-x="1003"
                   d="M59 72v243c83.333 -68 177 -102 281 -102c76.667 0 133 16 169 48s54 94.667 54 188v917h246v-909c0 -96.667 -14.667 -178.5 -44 -245.5s-68.333 -116 -117 -147s-95.167 -52.167 -139.5 -63.5s-90.833 -17 -139.5 -17c-112 0 -215.333 29.333 -310 88z"/>
            <glyph glyph-name="K" unicode="K" horiz-adv-x="1415"
                   d="M178 0v1366h246v-578l516 578h330l-551 -600l608 -766h-307l-459 592l-137 -150v-442h-246z"/>
            <glyph glyph-name="L" unicode="L" horiz-adv-x="1124"
                   d="M178 0v1366h246v-1133h657v-233h-903z"/>
            <glyph glyph-name="M" unicode="M" horiz-adv-x="1695"
                   d="M178 0v1366h273l395 -571l395 571h272v-1366h-245v1010l-422 -604l-422 604v-1010h-246z"/>
            <glyph glyph-name="N" unicode="N" horiz-adv-x="1587"
                   d="M178 0v1366h279l702 -1012v1012h246v-1366h-275l-706 1020v-1020h-246z"/>
            <glyph glyph-name="O" unicode="O" horiz-adv-x="1538"
                   d="M125 682c0 112 13 210.333 39 295s59.5 152.167 100.5 202.5s90.5 91.333 148.5 123s114.667 52.834 170 63.501s115 16 179 16s123.667 -5.33301 179 -16s112 -31.834 170 -63.501s107.833 -72.667 149.5 -123s75.5 -117.833 101.5 -202.5s39 -183 39 -295
c0 -110.667 -13 -208.667 -39 -294s-59.833 -152.833 -101.5 -202.5s-91.5 -90.334 -149.5 -122.001s-114.667 -52.834 -170 -63.501s-115 -16 -179 -16s-123.667 5.33301 -179 16s-112 31.834 -170 63.501s-107.5 72.334 -148.5 122.001s-74.5 117.167 -100.5 202.5
s-39 183.333 -39 294zM371 684c0 -102.667 10.1641 -187.667 30.4971 -255s50.333 -116.833 90 -148.5s80.334 -53.167 122.001 -64.5s91.167 -17 148.5 -17c46.667 0 87 3 121 9s69 18.833 105 38.5s65.333 47 88 82s41.5 82.5 56.5 142.5s22.5 131 22.5 213
c0 101.333 -10.167 185.666 -30.5 252.999s-50.666 116.833 -90.999 148.5s-81 52.834 -122 63.501s-90.833 16 -149.5 16c-45.333 0 -85 -3 -119 -9s-69.167 -19 -105.5 -39s-65.666 -47 -87.999 -81s-41 -80.667 -56 -140s-22.5 -130 -22.5 -212z"/>
            <glyph glyph-name="P" unicode="P" horiz-adv-x="1277"
                   d="M176 0v1366h510c161.333 0 286 -40 374 -120s132 -193 132 -339s-44 -258.833 -132 -338.5s-212.667 -119.5 -374 -119.5h-264v-449h-246zM422 672h246c108 0 181.667 19.833 221 59.5s59 98.167 59 175.5c0 76.667 -19.833 134.5 -59.5 173.5s-113.167 58.5 -220.5 58.5
h-246v-467z"/>
            <glyph glyph-name="Q" unicode="Q" horiz-adv-x="1529"
                   d="M125 682c0 112 13 210.332 39 294.999s59.5 152.167 100.5 202.5s90.5 91.333 148.5 123s115 52.834 171 63.501s116 16 180 16s123.667 -5.33301 179 -16s112 -31.834 170 -63.501s107.833 -72.667 149.5 -123s75.5 -117.833 101.5 -202.5s39 -183 39 -295
c0 -101.333 -10.667 -191.166 -32 -269.499s-49.333 -142.833 -84 -193.5s-76.667 -93 -126 -127s-98.833 -58.833 -148.5 -74.5s-103.167 -26.167 -160.5 -31.5c0 -62.667 23.167 -108.167 69.5 -136.5s101.5 -42.5 165.5 -42.5v-188c-292 0 -438 123 -438 369
c-70.667 9.33301 -135 27 -193 53s-113 64.5 -165 115.5s-92.667 121.333 -122 211s-44 194.5 -44 314.5zM371 681.999c0 -102.667 10.167 -187.334 30.5 -254.001s50.666 -116.167 90.999 -148.5s81 -53.833 122 -64.5s90.833 -16 149.5 -16
c57.333 0 106.833 5.33301 148.5 16s82.667 32.167 123 64.5s70.666 81.833 90.999 148.5s30.5 151.334 30.5 254.001s-10.167 187.334 -30.5 254.001s-50.666 116.167 -90.999 148.5s-81.333 53.833 -123 64.5s-91.167 16 -148.5 16c-58.667 0 -108.5 -5.33301 -149.5 -16
s-81.667 -32.167 -122 -64.5s-70.666 -81.833 -90.999 -148.5s-30.5 -151.334 -30.5 -254.001z"/>
            <glyph glyph-name="R" unicode="R" horiz-adv-x="1337"
                   d="M178 0v1366h524c160 0 284.333 -37.833 373 -113.5s133 -183.834 133 -324.501c0 -209.333 -99.667 -344.666 -299 -405.999l359 -522h-297l-326 481h-221v-481h-246zM424 707h272c83.333 0 148.666 15 195.999 45s71 86.667 71 170c0 84.667 -23.667 141.667 -71 171
s-112.666 44 -195.999 44h-272v-430z"/>
            <glyph glyph-name="S" unicode="S" horiz-adv-x="1189"
                   d="M125 985c0 131.333 46.3301 230.337 138.997 297.004s208.667 100 348 100c122.667 0 245 -31.333 367 -94v-239c-105.333 69.333 -218 104 -338 104c-75.333 0 -139.166 -13 -191.499 -39s-78.5 -67 -78.5 -123c0 -45.333 23.833 -80.833 71.5 -106.5
s105.334 -47.334 173.001 -65.001s135.667 -39.834 204 -66.501s126.333 -72.834 174 -138.501s71.5 -150.5 71.5 -254.5c0 -110.667 -45.667 -201 -137 -271s-202.666 -105 -333.999 -105c-173.333 0 -323.666 38.667 -450.999 116v250
c117.333 -87.333 248.666 -131 393.999 -131c188 0 282 52.333 282 157c0 47.333 -17 86.666 -51 117.999s-77 54.5 -129 69.5s-107.667 32.667 -167 53s-115 42.5 -167 66.5s-95 61.5 -129 112.5s-51 114.167 -51 189.5z"/>
            <glyph glyph-name="T" unicode="T" horiz-adv-x="1169"
                   d="M25 1120v246h1120v-246h-438v-1120h-246v1120h-436z"/>
            <glyph glyph-name="U" unicode="U" horiz-adv-x="1511"
                   d="M178 578l0.00195312 788h246v-809c0 -120 26 -208 78 -264s134.667 -84 248 -84s196.166 28 248.499 84s78.5 144 78.5 264v809h246v-788c0 -188.667 -50.167 -334.834 -150.5 -438.501s-241.333 -155.5 -423 -155.5s-322.334 51.833 -422.001 155.5
s-149.5 249.834 -149.5 438.501z"/>
            <glyph glyph-name="V" unicode="V" horiz-adv-x="1347"
                   d="M25 1366h262l387 -1061l387 1061h262l-522 -1366h-252z"/>
            <glyph glyph-name="W" unicode="W" horiz-adv-x="2045"
                   d="M25 1366h258l307 -1010l325 1010h215l326 -1010l309 1010h256l-438 -1366h-254l-305 952l-307 -952h-254z"/>
            <glyph glyph-name="X" unicode="X" horiz-adv-x="1329"
                   d="M25 0l485 690l-473 676h299l326 -461l323 461h289l-469 -666l491 -700h-299l-344 487l-344 -487h-284z"/>
            <glyph glyph-name="Y" unicode="Y" horiz-adv-x="1368"
                   d="M25 1366h297l362 -555l360 555h297l-534 -780v-586h-246v586z"/>
            <glyph glyph-name="Z" unicode="Z" horiz-adv-x="1271"
                   d="M131 0v225l684 895h-676v246h981v-219l-688 -901h688v-246h-989z"/>
            <glyph glyph-name="bracketleft" unicode="[" horiz-adv-x="808"
                   d="M244 -238v1663h395v-190h-207v-1282h207v-191h-395z"/>
            <glyph glyph-name="backslash" unicode="\" horiz-adv-x="829"
                   d="M-76 1548h205l752 -1749h-203z"/>
            <glyph glyph-name="bracketright" unicode="]" horiz-adv-x="808"
                   d="M172 -47h207v1282h-207v190h395v-1663h-395v191z"/>
            <glyph glyph-name="asciicircum" unicode="^" horiz-adv-x="1146"
                   d="M264 969l223 444h113l225 -444h-170l-110 260l-111 -260h-170z"/>
            <glyph glyph-name="underscore" unicode="_" horiz-adv-x="1118"
                   d="M0 -49h1118v-141h-1118v141z"/>
            <glyph glyph-name="grave" unicode="`" horiz-adv-x="522"
                   d="M92 1395h201l127 -240h-137z"/>
            <glyph glyph-name="a" unicode="a" horiz-adv-x="1110"
                   d="M115 334c0 20.667 2.00195 41.8301 6.00195 63.4971s14.5 48.834 31.5 81.501s40.167 61.334 69.5 86.001s72.666 45.834 129.999 63.501s125 26.5 203 26.5c56 0 116 -4.66699 180 -14c0 128.667 -72.333 193 -217 193c-114.667 0 -214.334 -17.333 -299.001 -52v199
c94 38 198.333 57 313 57c146 0 257.667 -37.167 335 -111.5s116 -181.833 116 -322.5v-276c0 -94 -35.167 -174.833 -105.5 -242.5s-178.5 -101.5 -324.5 -101.5c-150 0 -260.5 34 -331.5 102s-106.5 150.667 -106.5 248zM358.002 364.996c0 -109.333 64.333 -164 193 -164
h2c122.667 0 184 51.667 184 155v129c-57.333 8 -106.333 12.333 -147 13c-154 0 -231.333 -44.333 -232 -133z"/>
            <glyph glyph-name="b" unicode="b" horiz-adv-x="1181"
                   d="M170 328l0.00195312 1085h246v-391c58.667 10.667 114.667 16 168 16c152.667 0 270 -44.333 352 -133s123 -216.334 123 -383.001c0 -91.333 -12 -171.833 -36 -241.5s-52.333 -122.5 -85 -158.5s-71.834 -65.333 -117.501 -88s-85.334 -36.667 -119.001 -42
s-67.5 -8 -101.5 -8c-146 0 -254.167 33.667 -324.5 101s-105.5 148.333 -105.5 243zM416.002 305.001c0 -73.333 61.333 -110.001 184 -110.001c78 0 132.667 26.5 164 79.5s47 139.833 47 260.5c0 114.667 -20.167 194.834 -60.5 240.501s-98.833 68.5 -175.5 68.5
c-60 0 -113 -5.66699 -159 -17v-522z"/>
            <glyph glyph-name="c" unicode="c" horiz-adv-x="966"
                   d="M119 510c0 170.667 41.667 301.334 125 392.001s202.666 136 357.999 136c100 0 198.333 -19 295 -57v-205c-80.667 32.667 -165.334 49 -254.001 49c-94 0 -163.833 -21.5 -209.5 -64.5s-68.5 -126.5 -68.5 -250.5c0 -122.667 22.833 -205.834 68.5 -249.501
s115.5 -65.5 209.5 -65.5c84.667 0 169.334 17 254.001 51v-205c-96.667 -38 -195 -57 -295 -57c-155.333 0 -274.666 45.333 -357.999 136s-125 220.667 -125 390z"/>
            <glyph glyph-name="d" unicode="d" horiz-adv-x="1167"
                   d="M129 522c0 166.667 40.665 294.333 121.998 383s198.333 133 351 133c54.667 0 111.334 -5.33301 170.001 -16v391h246v-1085c0 -94 -35.5 -174.833 -106.5 -242.5s-179.5 -101.5 -325.5 -101.5c-34 0 -67.833 2.66699 -101.5 8s-73 19.333 -118 42s-84.167 52 -117.5 88
s-61.666 88.833 -84.999 158.5s-35 150.167 -35 241.5zM374.998 534.999c0 -120 15.667 -206.667 47 -260s86 -80 164 -80c124 0 186 36.667 186 110v522c-48 10.667 -102 16.334 -162 17.001c-76.667 0 -135 -22.833 -175 -68.5s-60 -125.834 -60 -240.501z"/>
            <glyph glyph-name="e" unicode="e" horiz-adv-x="1144"
                   d="M129 500c0 164 36.5 294.999 109.5 392.999s188.833 147 347.5 147c150 0 263.5 -47.667 340.5 -143s115.5 -212.666 115.5 -351.999c0 -57.333 -1.33301 -99.666 -4 -126.999h-657c6.66699 -88.667 33.167 -148 79.5 -178s106.5 -45 180.5 -45c120 0 236 26.333 348 79
v-198c-113.333 -61.333 -241.666 -92 -384.999 -92c-45.333 0 -88 3.66699 -128 11s-81.833 22.666 -125.5 45.999s-81.334 53 -113.001 89s-57.667 85.833 -78 149.5s-30.5 137.167 -30.5 220.5zM381 587.999h411.999c-6.66699 70.667 -27.5 130.334 -62.5 179.001
s-83.167 73 -144.5 73s-109.166 -19.833 -143.499 -59.5s-54.833 -103.834 -61.5 -192.501z"/>
            <glyph glyph-name="f" unicode="f" horiz-adv-x="731"
                   d="M82 811v211.001h174c1.33301 282.667 128.333 424 381 424c32.667 0 66 -3.33301 100 -10v-193c-24.667 2.66699 -43 4 -55 4c-64 0 -110 -15.333 -138 -46s-42 -90.334 -42 -179.001h235v-211h-235v-811h-246v811h-174z"/>
            <glyph glyph-name="g" unicode="g" horiz-adv-x="1122"
                   d="M123 514c0 90 11.666 168.499 34.999 235.499s51 118.167 83 153.5s69.833 64 113.5 86s81.834 35.667 114.501 41s65.334 8 98.001 8c143.333 0 248.833 -32.667 316.5 -98s101.5 -144.666 101.5 -237.999v-727c0 -32.667 -3 -63.667 -9 -93s-18.667 -62 -38 -98
s-45 -66.667 -77 -92s-77 -46.833 -135 -64.5s-125.333 -26.5 -202 -26.5c-108 0 -206.333 13.667 -295 41v219c82 -27.333 171 -41 267 -41c57.333 0 104 4.33301 140 13s60.5 22.334 73.5 41.001s21.167 34.5 24.5 47.5s5 30.833 5 53.5v56
c-54.667 -10.667 -106.334 -16.334 -155.001 -17.001c-148.667 0 -262.667 43 -342 129s-119 209.667 -119 371zM368.999 509.999c0 -114.667 18.332 -192.499 54.999 -233.499s92.667 -61.5 168 -61.5c50 0 99 4.66699 147 14v476c0 76 -56.333 114 -169 114h-3
c-65.333 0 -114.666 -23.833 -147.999 -71.5s-50 -126.834 -50 -237.501z"/>
            <glyph glyph-name="h" unicode="h" horiz-adv-x="1228"
                   d="M193 0l0.00292969 1411h245v-407c58.667 22.667 127 34 205 34c142 0 253 -37.167 333 -111.5s120 -178.5 120 -312.5v-614h-244v635c0 27.333 -2.33301 50.166 -7 68.499s-14.834 37.5 -30.501 57.5s-41.334 35 -77.001 45s-80.834 15 -135.501 15
c-64 0 -118.667 -10 -164 -30v-791h-245z"/>
            <glyph glyph-name="i" unicode="i" horiz-adv-x="638"
                   d="M193 1161v225h251v-225h-251zM197 0v1022h245v-1022h-245z"/>
            <glyph glyph-name="j" unicode="j" horiz-adv-x="593"
                   d="M6 -205c46.667 2.66699 84.0029 8.50195 112.003 17.502s47 23 57 42s16.167 35.333 18.5 49s3.5 35.5 3.5 65.5v1053h245v-1036c0 -44 -2.33301 -81.667 -7 -113s-15.834 -64.5 -33.501 -99.5s-41.834 -63.333 -72.501 -85s-73.334 -40.334 -128.001 -56.001
s-119.667 -24.834 -195 -27.501v190zM193.003 1161v225h251v-225h-251z"/>
            <glyph glyph-name="k" unicode="k" horiz-adv-x="1226"
                   d="M188 0v1405h246v-758l344 375h326l-445 -455l492 -567h-311l-338 403l-68 -69v-334h-246z"/>
            <glyph glyph-name="l" unicode="l" horiz-adv-x="659"
                   d="M207 0v1411h246v-1411h-246z"/>
            <glyph glyph-name="m" unicode="m" horiz-adv-x="1908"
                   d="M193 0l0.000976562 924.002c151.333 76 300 114 446 114h4c110.667 0 203 -25 277 -75c126.667 50 249.334 75 368.001 75c138 0 245.5 -37.5 322.5 -112.5s115.5 -178.833 115.5 -311.5v-614h-245v631c0 65.333 -16.5 114.666 -49.5 147.999s-94.5 50 -184.5 50
c-70.667 0 -140.334 -8 -209.001 -24c28.667 -32.667 43 -96.334 43 -191.001v-614h-243v637c0 62.667 -16.167 109.667 -48.5 141s-92.833 47 -181.5 47c-58.667 0 -115.334 -5.33301 -170.001 -16v-809h-245z"/>
            <glyph glyph-name="n" unicode="n" horiz-adv-x="1273"
                   d="M168 0v926.001c150 74.667 306.333 112 469 112c142 0 253 -37.167 333 -111.5s120 -178.5 120 -312.5v-614h-244v635c0 27.333 -2.5 50.166 -7.5 68.499s-15 37.5 -30 57.5s-39.5 35 -73.5 45s-77.667 15 -131 15c-60 0 -123.333 -6 -190 -18v-803h-246z"/>
            <glyph glyph-name="o" unicode="o" horiz-adv-x="1159"
                   d="M100 510c0 169.333 41.667 299.333 125 390s202.833 136 358.5 136s275.167 -45.333 358.5 -136s125 -220.667 125 -390s-41.667 -299.333 -125 -390s-202.833 -136 -358.5 -136s-275.167 45.333 -358.5 136s-125 220.667 -125 390zM346 509.5
c0 -127 19.5 -212.667 58.5 -257s98.833 -66.5 179.5 -66.5s140.334 22.167 179.001 66.5s58 130 58 257s-19.333 212.833 -58 257.5s-98.334 67 -179.001 67s-140.5 -22.333 -179.5 -67s-58.5 -130.5 -58.5 -257.5z"/>
            <glyph glyph-name="p" unicode="p" horiz-adv-x="1175"
                   d="M168 -379l-0.00195312 1071c0 94 35.167 174.833 105.5 242.5s178.5 101.5 324.5 101.5c34 0 67.833 -2.66699 101.5 -8s73.334 -19.333 119.001 -42s84.834 -52 117.501 -88s61 -88.833 85 -158.5s36 -150.167 36 -241.5c0 -166.667 -41 -294.667 -123 -384
s-199.333 -134 -352 -134c-57.333 0 -113.333 6 -168 18v-377h-246zM413.998 182c56.667 -8 107 -11.999 151 -11.999c79.333 0 139.833 23.167 181.5 69.5s62.5 128.166 62.5 245.499c0 120 -15.667 206.667 -47 260s-86 80 -164 80c-122.667 0 -184 -36.667 -184 -110
v-533z"/>
            <glyph glyph-name="q" unicode="q" horiz-adv-x="1171"
                   d="M115 498c0 91.333 11.501 171.833 34.501 241.5s51.333 122.5 85 158.5s73 65.333 118 88s84.167 36.667 117.5 42s67 8 101 8c146 0 254.667 -33.667 326 -101s107 -148.333 107 -243v-1071h-246v377c-54.667 -12 -111.334 -18 -170.001 -18
c-152.667 0 -269.667 44.667 -351 134s-122 217.333 -122 384zM360.001 485c0 -117.333 20.834 -199.167 62.501 -245.5s102.167 -69.5 181.5 -69.5c45.333 0 96.666 4 153.999 12v533c0 73.333 -61.333 110 -184 110h-3c-78 0 -132.667 -26.667 -164 -80s-47 -140 -47 -260
z"/>
            <glyph glyph-name="r" unicode="r" horiz-adv-x="741"
                   d="M166 0v930c16.667 8 39.667 17.5 69 28.5s88.333 26.667 177 47s176.667 31.166 264 32.499v-213c-102.667 -1.33301 -190.667 -12.666 -264 -33.999v-791h-246z"/>
            <glyph glyph-name="s" unicode="s" horiz-adv-x="923"
                   d="M100 719c0 102.667 36.1699 181.498 108.503 236.498s162.5 82.5 270.5 82.5c101.333 0 194.333 -24.333 279 -73v-187c-69.333 32.667 -148 49 -236 49c-117.333 0 -176 -28.667 -176 -86c0 -28.667 16.667 -51.167 50 -67.5s74 -30.666 122 -42.999
s95.833 -29 143.5 -50s88.334 -56.5 122.001 -106.5s50.5 -113.667 50.5 -191c0 -86 -34.833 -157.333 -104.5 -214s-161.834 -85 -276.501 -85c-117.333 0 -225.333 28 -324 84v219c90 -60 186.333 -90 289 -90c70.667 0 116.667 8.16699 138 24.5s32 40.833 32 73.5
c0 30 -16.833 54.167 -50.5 72.5s-74.334 34.333 -122.001 48s-95.334 29.834 -143.001 48.501s-88.334 49.5 -122.001 92.5s-50.5 97.167 -50.5 162.5z"/>
            <glyph glyph-name="t" unicode="t" horiz-adv-x="794"
                   d="M49 811v211h172v303h246v-303h242v-211h-242v-504c0 -44 9.16699 -73.667 27.5 -89s50.833 -23 97.5 -23c44 0 83 7.33301 117 22v-203c-48 -20 -100.333 -30 -157 -30h-5c-101.333 0 -181 30 -239 90s-87 142.667 -87 248v489h-172z"/>
            <glyph glyph-name="u" unicode="u" horiz-adv-x="1259"
                   d="M168 463l0.000976562 559h248v-592c0 -82 16.667 -141 50 -177s87.666 -54 162.999 -54c76.667 0 131.667 18 165 54s50 95 50 177v592h248v-559c0 -150 -41 -267.333 -123 -352s-195.333 -127 -340 -127s-257.667 42.333 -339 127s-122 202 -122 352z"/>
            <glyph glyph-name="v" unicode="v" horiz-adv-x="1169"
                   d="M66 1022h262l256 -772l256 772h264l-391 -1022h-256z"/>
            <glyph glyph-name="w" unicode="w" horiz-adv-x="1710"
                   d="M78 1022h260l217 -737l195 737h211l194 -737l217 737h260l-362 -1022h-246l-168 588l-170 -588h-246z"/>
            <glyph glyph-name="x" unicode="x" horiz-adv-x="1142"
                   d="M57 0l363 516l-354 506h301l204 -291l205 291h273l-342 -483l378 -539h-301l-229 326l-231 -326h-267z"/>
            <glyph glyph-name="y" unicode="y" horiz-adv-x="1107"
                   d="M63 1022l261 0.000976562l229 -713l225 713h260l-389 -1047c-54.667 -148.667 -114 -248.834 -178 -300.501s-130.333 -77.5 -199 -77.5c-50.667 0 -102.334 9.33301 -155.001 28v205c39.333 -16.667 78 -25 116 -25c70.667 0 136.334 82.667 197.001 248z"/>
            <glyph glyph-name="z" unicode="z" horiz-adv-x="999"
                   d="M92 0v229l471 570h-461v223h777v-227l-478 -572h478v-223h-787z"/>
            <glyph glyph-name="braceleft" unicode="{" horiz-adv-x="784"
                   d="M186 506v194.003c8 1.33301 17.5 3.83301 28.5 7.5s26.167 15 45.5 34s29 42.833 29 71.5v293c0 96.667 27 175.167 81 235.5s134.667 90.5 242 90.5h41v-185h-24c-28.667 0 -52 -3.66699 -70 -11s-30.333 -18.833 -37 -34.5s-11 -29.334 -13 -41.001
s-3 -27.834 -3 -48.501v-289c0 -57.333 -17.5 -104.666 -52.5 -141.999s-74.167 -63.666 -117.5 -78.999c44 -13.333 83.333 -38.833 118 -76.5s52 -85.167 52 -142.5v-289c0 -20.667 1 -36.667 3 -48s6.33301 -24.833 13 -40.5s19 -27.334 37 -35.001
s41.333 -11.5 70 -11.5h24v-184h-41c-108 0 -188.833 30 -242.5 90s-80.5 138.333 -80.5 235v293c0 27.333 -8.5 50.666 -25.5 69.999s-33.833 31.666 -50.5 36.999z"/>
            <glyph glyph-name="bar" unicode="|" horiz-adv-x="954"
                   d="M379 -203v1569h219v-1569h-219z"/>
            <glyph glyph-name="braceright" unicode="}" horiz-adv-x="784"
                   d="M156 -41l22.002 -0.00195312c28.667 0 51.834 3.83301 69.501 11.5s30 19.334 37 35.001s11.5 29.167 13.5 40.5s3 27.333 3 48v289c0 57.333 17.5 104.833 52.5 142.5s74.167 63.167 117.5 76.5c-44 15.333 -83.333 41.666 -118 78.999s-52 84.666 -52 141.999v289
c0 20.667 -1 36.834 -3 48.501s-6.5 25.334 -13.5 41.001s-19.333 27.167 -37 34.5s-40.834 11 -69.501 11h-22v185h39c109.333 0 190.833 -29.833 244.5 -89.5s80.5 -138.5 80.5 -236.5v-293c0 -28.667 8.5 -52.167 25.5 -70.5s34.5 -29.5 52.5 -33.5l25 -9v-194
c-2.66699 0 -6.5 -0.666992 -11.5 -2s-13.333 -4.83301 -25 -10.5s-21.834 -12.167 -30.501 -19.5s-16.834 -18.166 -24.501 -32.499s-11.5 -30.5 -11.5 -48.5v-293c0 -98 -27 -176.667 -81 -236s-135.333 -89 -244 -89h-39v184z"/>
            <glyph glyph-name="asciitilde" unicode="~" horiz-adv-x="1071"
                   d="M201 457l-0.000976562 168c38 45.333 81 70 129 74c7.33301 0.666992 15 1 23 1c39.333 0 78 -8.66699 116 -26l135 -60c38 -16.667 76.333 -25 115 -25c8 0 15.667 0.333008 23 1c47.333 4 90 28.667 128 74v-168c-38 -45.333 -80.667 -70 -128 -74
c-7.33301 -0.666992 -15 -1 -23 -1c-38.667 0 -77 8.33301 -115 25l-135 60c-37.333 17.333 -75.666 26 -114.999 26c-8 0 -16 -0.666992 -24 -2c-48 -4 -91 -28.333 -129 -73z"/>
            <glyph glyph-name="exclamdown" unicode="&#xa1;" horiz-adv-x="825"
                   d="M283 -344l45 973h190l45 -973h-280zM303 795v227h240v-227h-240z"/>
            <glyph glyph-name="cent" unicode="&#xa2;" horiz-adv-x="976"
                   d="M117 682c0 164 38.5 291.334 115.5 382.001s188.5 139.334 334.5 146.001v156h119v-160c65.333 -6.66699 135 -24.334 209 -53.001v-205c-65.333 27.333 -135 43 -209 47v-626c69.333 4 139 20.333 209 49v-205c-74 -28.667 -143.667 -46.334 -209 -53.001v-160h-119v156
c-146 6.66699 -257.5 55 -334.5 145s-115.5 217 -115.5 381zM362 682.001c0 -105.333 17.167 -181.5 51.5 -228.5s85.5 -74.5 153.5 -82.5v622c-68 -8 -119.167 -35.167 -153.5 -81.5s-51.5 -122.833 -51.5 -229.5z"/>
            <glyph glyph-name="sterling" unicode="&#xa3;" horiz-adv-x="1153"
                   d="M100 -31l-0.000976562 208.999c34 26 92 48.667 174 68v319h-174v195h174v235c0 106.667 35.167 197.834 105.5 273.501s179.5 113.5 327.5 113.5c112 0 222.333 -31.333 331 -94v-211c-99.333 75.333 -203.666 113 -312.999 113c-78 0 -137.5 -18.833 -178.5 -56.5
s-61.5 -88.5 -61.5 -152.5v-221h377v-195h-377v-325c4 -1.33301 29 -8.16602 75 -20.499s74.5 -19.5 85.5 -21.5l74.5 -14c32.667 -6.66699 58 -10 76 -10h8c18 1.33301 42.833 2.66602 74.5 3.99902s60 6.5 85 15.5s49.833 20.833 74.5 35.5v-215
c-57.333 -29.333 -118 -44 -182 -44h-4c-65.333 0.666992 -127.333 9.16699 -186 25.5s-118 31.833 -178 46.5c-36 8.66699 -73.333 13 -112 13c-25.333 0 -51.333 -2 -78 -6c-67.333 -9.33301 -133.333 -36 -198 -80z"/>
            <glyph glyph-name="yen" unicode="&#xa5;" horiz-adv-x="1396"
                   d="M37 1366h297l362 -555l361 555h297l-410 -598h162v-184h-287v-160h287v-184h-287v-240h-246v240h-288v184h288v160h-288v184h161z"/>
            <glyph glyph-name="section" unicode="&#xa7;" horiz-adv-x="1247"
                   d="M137 709c0 65.333 26.334 116 79.001 152s111 55.667 175 59c-31.333 13.333 -57.5 36.333 -78.5 69s-31.5 67 -31.5 103c0 70.667 22.5 128.834 67.5 174.501s97.833 76.667 158.5 93s128.667 24.5 204 24.5c122.667 0 237.334 -30.667 344.001 -92v-211
c-109.333 52 -214 78 -314 78c-49.333 0 -94.333 -7.16699 -135 -21.5s-61 -38.5 -61 -72.5c0 -18 14 -34.833 42 -50.5s63.167 -29.334 105.5 -41.001s87.666 -27 135.999 -46s93.666 -39.333 135.999 -61s77.5 -51.667 105.5 -90s42 -82.166 42 -131.499
c0 -57.333 -21.833 -103 -65.5 -137s-97.5 -54.667 -161.5 -62c56 -34 84 -89.667 84 -167c0 -88.667 -39 -160 -117 -214s-183 -81 -315 -81c-140.667 0 -272 40 -394 120v230c109.333 -88.667 232.333 -133 369 -133c54.667 0 101.834 7.5 141.501 22.5
s59.5 38.167 59.5 69.5c0 23.333 -19.833 43.5 -59.5 60.5s-87.5 33.667 -143.5 50s-112.333 35.166 -169 56.499s-104.834 53 -144.501 95s-59.5 93.333 -59.5 154zM401.001 719c0 -28.667 22.666 -53.668 67.999 -75.001s130 -52.333 254 -93
c40.667 4 71.667 15.167 93 33.5s32 36.5 32 54.5c0 24.667 -18.5 46.834 -55.5 66.501s-86.167 38.834 -147.5 57.501s-96.666 30 -105.999 34c-30 -2.66699 -60.5 -10.834 -91.5 -24.501s-46.5 -31.5 -46.5 -53.5z"/>
            <glyph glyph-name="dieresis" unicode="&#xa8;" horiz-adv-x="856"
                   d="M162 1155v195h207v-195h-207zM489 1155v195h207v-195h-207z"/>
            <glyph glyph-name="copyright" unicode="&#xa9;" horiz-adv-x="1593"
                   d="M98 682c0 194 68.333 359.167 205 495.5s301.334 204.5 494.001 204.5c194 0 359.167 -68.167 495.5 -204.5s204.5 -301.5 204.5 -495.5c0 -192.667 -68.333 -357.167 -205 -493.5s-301.667 -204.5 -495 -204.5c-192.667 0 -357.334 68.167 -494.001 204.5
s-205 300.833 -205 493.5zM203 682c0 -164 58 -304 174 -420s256 -174 420 -174c165.333 0 306 58 422 174s174 256 174 420c0 165.333 -58.167 306 -174.5 422s-256.833 174 -421.5 174c-164 0 -304 -58 -420 -174s-174 -256.667 -174 -422zM440 682
c0 80.667 11.001 149.332 33.001 205.999s52.167 99 90.5 127s77.166 47.833 116.499 59.5s83 17.5 131 17.5c82 0 162.667 -16 242 -48v-135c-78 35.333 -154.333 53 -229 53c-0.666992 0.666992 -1.33398 1 -2.00098 1c-74.667 0 -132.667 -19 -174 -57
c-42.667 -37.333 -64 -112 -64 -224s21 -186.5 63 -223.5s100.667 -55.5 176 -55.5c79.333 0 156 18 230 54v-135c-79.333 -31.333 -160 -47.333 -242 -48c-48 0 -91.667 5.83301 -131 17.5s-78.166 31.167 -116.499 58.5s-68.5 69.333 -90.5 126s-33 125.334 -33 206.001z
"/>
            <glyph glyph-name="ordfeminine" unicode="&#xaa;" horiz-adv-x="808"
                   d="M154 989c0 16.667 2.33203 32.8311 6.99902 48.498s14.167 34.667 28.5 57s39.166 40.333 74.499 54s79.666 20.5 132.999 20.5c26 0 59.667 -2.66699 101 -8c0 70.667 -40.333 106.334 -121 107.001c-65.333 0 -120.666 -9.66699 -165.999 -29v111
c52 21.333 110 32 174 32c80.667 0 142.834 -20.833 186.501 -62.5s65.5 -101.167 65.5 -178.5v-154c0 -53.333 -19.5 -98.666 -58.5 -135.999s-99.5 -56 -181.5 -56c-83.333 0 -144.666 19 -183.999 57s-59 83.667 -59 137zM288.999 1008
c0 -61.333 35.332 -92.334 105.999 -93.001c70 0.666992 105 30.334 105 89.001v71c-49.333 4 -76.666 6 -81.999 6c-86 0 -129 -24.333 -129 -73z"/>
            <glyph glyph-name="guillemotleft" unicode="&#xab;" horiz-adv-x="1247"
                   d="M66 522l346 389h286l-372 -389l372 -391h-286zM522 522l346 389h287l-373 -389l373 -391h-287z"/>
            <glyph glyph-name="logicalnot" unicode="&#xac;" horiz-adv-x="1273"
                   d="M199 492v192h876v-389h-176v197h-700z"/>
            <glyph glyph-name="registered" unicode="&#xae;" horiz-adv-x="1593"
                   d="M100 682c0 194 68.333 359.167 205 495.5s301.334 204.5 494.001 204.5c194 0 359.167 -68.167 495.5 -204.5s204.5 -301.5 204.5 -495.5c0 -192.667 -68.167 -357.167 -204.5 -493.5s-301.5 -204.5 -495.5 -204.5c-192.667 0 -357.334 68.167 -494.001 204.5
s-205 300.833 -205 493.5zM205 682c0 -164 58 -304 174 -420s256 -174 420 -174c165.333 0 306 58 422 174s174 256 174 420c0 165.333 -58 306 -174 422s-256.667 174 -422 174c-164 0 -304 -58 -420 -174s-174 -256.667 -174 -422zM528 285l-0.000976562 796h306
c92.667 0 164.834 -22.167 216.501 -66.5s77.5 -107.5 77.5 -189.5c0 -122.667 -58 -201 -174 -235l209 -305h-174l-188 280h-129v-280h-144zM671.999 696h157c48 0 86 8.66699 114 26s42 50.5 42 99.5s-14 82.333 -42 100s-66 26.5 -114 26.5h-157v-252z"/>
            <glyph glyph-name="macron" unicode="&#xaf;" horiz-adv-x="825"
                   d="M176 1180v145h479v-145h-479z"/>
            <glyph glyph-name="degree" unicode="&#xb0;" horiz-adv-x="792"
                   d="M168 1143c0 74 19.167 130.333 57.5 169s93.666 58 165.999 58s127.5 -19.5 165.5 -58.5s57 -95.167 57 -168.5c0 -72.667 -19 -128.334 -57 -167.001s-93.167 -58 -165.5 -58s-127.666 19.333 -165.999 58s-57.5 94.334 -57.5 167.001zM276 1145
c0 -45.333 9.33301 -77.833 28 -97.5s47.834 -29.5 87.501 -29.5s68.334 9.83301 86.001 29.5s26.5 52.167 26.5 97.5c0 44 -8.83301 75.833 -26.5 95.5s-46.334 29.5 -86.001 29.5s-68.834 -10 -87.501 -30s-28 -51.667 -28 -95z"/>
            <glyph glyph-name="plusminus" unicode="&#xb1;" horiz-adv-x="1198"
                   d="M242 61v166h727v-166h-727zM242 604v182h272v275h182v-275h273v-182h-273v-270h-182v270h-272z"/>
            <glyph glyph-name="uni00B2" unicode="&#xb2;" horiz-adv-x="696"
                   d="M109 948v109.001c83.333 61.333 161.5 131.166 234.5 209.499s109.5 147.833 109.5 208.5c0 58.667 -43 88 -129 88c-79.333 0 -149 -22 -209 -66v133c70.667 42 141.667 63.333 213 64c87.333 0 151.833 -21.5 193.5 -64.5s62.5 -94.5 62.5 -154.5
c0 -120 -84.667 -252 -254 -396h266v-131h-487z"/>
            <glyph glyph-name="uni00B3" unicode="&#xb3;" horiz-adv-x="686"
                   d="M111 993l0.00195312 135c64 -38 130.667 -57 200 -57c105.333 0 158 33.333 158 100c0 75.333 -54 113 -162 113h-94v109h98c40.667 0 71 8.5 91 25.5s30 37.833 30 62.5c0 53.333 -43 80 -129 80c-66.667 0 -125.334 -16 -176.001 -48v136
c65.333 30 126.666 45 183.999 45c72.667 0 133.167 -16.5 181.5 -49.5s72.5 -86.167 72.5 -159.5c0 -60 -30 -106.333 -90 -139c83.333 -28.667 125 -87.667 125 -177c0 -80.667 -28.333 -139 -85 -175s-122 -54 -196 -54c-72.667 0 -142 17.667 -208 53z"/>
            <glyph glyph-name="acute" unicode="&#xb4;" horiz-adv-x="528"
                   d="M121 1155l127 240h201l-191 -240h-137z"/>
            <glyph glyph-name="uni00B5" unicode="&#xb5;" horiz-adv-x="1323"
                   d="M203 -430l0.000976562 1452h243v-635c0 -27.333 2.5 -50.166 7.5 -68.499s15 -37.5 30 -57.5s39.5 -35 73.5 -45s77.667 -15 131 -15c60 0 123.667 6 191 18v803h245v-926c-148.667 -74.667 -303.667 -112 -465 -112h-4c-84.667 0 -154.334 17 -209.001 51v-465h-243z
"/>
            <glyph glyph-name="paragraph" unicode="&#xb6;" horiz-adv-x="911"
                   d="M78 946c0 135.333 40.333 239.167 121 311.5s197.334 108.5 350.001 108.5h299v-1366h-232v524h-67c-152.667 0 -269.334 36.167 -350.001 108.5s-121 176.833 -121 313.5z"/>
            <glyph glyph-name="periodcentered" unicode="&#xb7;" horiz-adv-x="663"
                   d="M211 444v228h240v-228h-240z"/>
            <glyph glyph-name="cedilla" unicode="&#xb8;" horiz-adv-x="563"
                   d="M119 -256l178 246h160l-127 -246h-211z"/>
            <glyph glyph-name="uni00B9" unicode="&#xb9;" horiz-adv-x="512"
                   d="M109 1452v141l143 90h121v-735h-133v586z"/>
            <glyph glyph-name="ordmasculine" unicode="&#xba;" horiz-adv-x="854"
                   d="M152 1092c0 94 23.167 166.167 69.5 216.5s113.166 75.5 200.499 75.5s154.166 -25.167 200.499 -75.5s69.5 -122.5 69.5 -216.5c0 -95.333 -23.167 -168.333 -69.5 -219s-113.166 -76 -200.499 -76s-154.166 25.167 -200.499 75.5s-69.5 123.5 -69.5 219.5zM289 1092
c0 -70.667 10.833 -118.832 32.5 -144.499s55.167 -38.5 100.5 -38.5c44 0 77.167 12.667 99.5 38s33.5 73.666 33.5 144.999c0 69.333 -11.333 116.666 -34 141.999s-55.667 38 -99 38c-45.333 0 -78.833 -12.667 -100.5 -38s-32.5 -72.666 -32.5 -141.999z"/>
            <glyph glyph-name="guillemotright" unicode="&#xbb;" horiz-adv-x="1277"
                   d="M106 131l373 389l-373 391h287l346 -391l-346 -389h-287zM563 131l373 389l-373 391h287l346 -391l-346 -389h-287z"/>
            <glyph glyph-name="onequarter" unicode="&#xbc;" horiz-adv-x="1476"
                   d="M109 1149v141l143 90h121v-735h-133v586zM168 -45l895 1448h164l-895 -1448h-164zM825 209v108l336 418h125v-409h96v-117h-96v-209h-131v209h-330zM981 326h174v227z"/>
            <glyph glyph-name="onehalf" unicode="&#xbd;" horiz-adv-x="1527"
                   d="M109 1149v141l143 90h121v-735h-133v586zM168 -45l895 1448h164l-895 -1448h-164zM936 0v109.001c83.333 61.333 161.5 131.166 234.5 209.499s109.5 147.5 109.5 207.5c0 58.667 -43 88 -129 88c-79.333 0 -149 -21.667 -209 -65v133c70.667 42 141.667 63 213 63
c87.333 0 151.833 -21.5 193.5 -64.5s62.5 -94.5 62.5 -154.5c0 -120 -84.667 -251.667 -254 -395h266v-131h-487z"/>
            <glyph glyph-name="threequarters" unicode="&#xbe;" horiz-adv-x="1691"
                   d="M135 688l0.00292969 135.002c64 -38 131 -57 201 -57c105.333 0 158 33.333 158 100c0 75.333 -54 113 -162 113h-94v108h98c40.667 0 71 8.66699 91 26s30 38.333 30 63c0 52.667 -42 79 -126 79h-3c-66.667 0 -125.334 -15.667 -176.001 -47v135
c65.333 30 126.666 45.333 183.999 46c72.667 0 133.167 -16.5 181.5 -49.5s72.5 -86.167 72.5 -159.5c0 -60.667 -30 -107.334 -90 -140.001c83.333 -28.667 125 -87.334 125 -176.001c0 -80.667 -28.333 -139 -85 -175s-122 -54 -196 -54
c-72.667 0 -142.334 17.667 -209.001 53zM369.003 -44.998l895 1448h163l-895 -1448h-163zM1032 209.002v108l336 418h125v-409h96v-117h-96v-209h-131v209h-330zM1188 326.002h174v227z"/>
            <glyph glyph-name="questiondown" unicode="&#xbf;" horiz-adv-x="1042"
                   d="M156 37c0 46.667 7.5 88.6641 22.5 125.997s33.667 68 56 92s46.5 48.667 72.5 74l73 73c22.667 22.667 41.5 51.834 56.5 87.501s22.5 75.167 22.5 118.5v21h217v-27c0 -69.333 -10.333 -130.666 -31 -183.999s-46 -95.666 -76 -126.999s-59.667 -60 -89 -86
s-54.166 -53 -74.499 -81s-30.5 -57.667 -30.5 -89c0 -121.333 73.667 -182 221 -182c120 0 221.667 36.667 305 110v-227c-100 -64 -207 -96 -321 -96c-76.667 0 -143.334 11.167 -200.001 33.5s-100.667 53 -132 92s-54.5 81 -69.5 126s-22.5 93.5 -22.5 145.5z
M446 794.997v227h240v-227h-240z"/>
            <glyph glyph-name="Agrave" unicode="&#xc0;"
                   d="M43 0l543 1366h270l543 -1366h-264l-125 328h-578l-125 -328h-264zM459 1722h200l127 -239h-137zM516 551h408l-203 536z"/>
            <glyph glyph-name="Aacute" unicode="&#xc1;"
                   d="M43 0l543 1366h270l543 -1366h-264l-125 328h-578l-125 -328h-264zM516 551h408l-203 536zM655 1483l127 239h201l-190 -239h-138z"/>
            <glyph glyph-name="Acircumflex" unicode="&#xc2;"
                   d="M43 0l543 1366h270l543 -1366h-264l-125 328h-578l-125 -328h-264zM485 1483l187 250h98l188 -250h-163l-74 114l-74 -114h-162zM516 551h408l-203 536z"/>
            <glyph glyph-name="Atilde" unicode="&#xc3;"
                   d="M43 0l543 1366h270l543 -1366h-264l-125 328h-578l-125 -328h-264zM410 1481l-0.000976562 155c38 45.333 79.333 70 124 74c6.66699 0.666992 13.667 1 21 1c36.667 0 71.667 -8.33301 105 -25l122 -61c34 -16.667 68.667 -25 104 -25c8 0 16 0.666992 24 2
c43.333 4 84 28.333 122 73v-155c-38 -45.333 -78.667 -70 -122 -74c-8 -0.666992 -15.667 -1 -23 -1c-35.333 0 -70.333 8.33301 -105 25l-122 60c-33.333 17.333 -68 26 -104 26c-7.33301 0 -14.666 -0.666992 -21.999 -2c-44.667 -4 -86 -28.333 -124 -73zM515.999 551
h408l-203 536z"/>
            <glyph glyph-name="Adieresis" unicode="&#xc4;"
                   d="M43 0l543 1366h270l543 -1366h-264l-125 328h-578l-125 -328h-264zM455 1483v194h207v-194h-207zM516 551h408l-203 536zM782 1483v194h207v-194h-207z"/>
            <glyph glyph-name="Aring" unicode="&#xc5;"
                   d="M43 0l543 1366h270l543 -1366h-264l-125 328h-578l-125 -328h-264zM516 551h408l-203 536zM543 1599.5c0 55.667 15.667 99 47 130s75 46.5 131 46.5c57.333 0 101.333 -15.5 132 -46.5s46 -74.333 46 -130s-15.333 -99 -46 -130s-74.667 -46.5 -132 -46.5
c-56 0 -99.667 15.5 -131 46.5s-47 74.333 -47 130zM651 1599.5c0 -33 5.16699 -56 15.5 -69s28.5 -19.5 54.5 -19.5s44.167 6.5 54.5 19.5s15.5 36 15.5 69s-5.16699 56 -15.5 69s-28.5 19.5 -54.5 19.5s-44.167 -6.5 -54.5 -19.5s-15.5 -36 -15.5 -69z"/>
            <glyph glyph-name="AE" unicode="&#xc6;" horiz-adv-x="2039"
                   d="M51 0l864 1366h1002v-221h-664v-346h576v-232h-576v-346h664v-221h-909v307h-478l-188 -307h-291zM655 512h353v578z"/>
            <glyph glyph-name="Ccedilla" unicode="&#xc7;" horiz-adv-x="1286"
                   d="M125 684c0 112 12.999 210.333 38.999 295s59.5 152.167 100.5 202.5s90.5 91.333 148.5 123s114.667 52.834 170 63.501s115 16 179 16c140.667 0 278 -27 412 -81v-230c-127.333 60 -257.333 90 -390 90c-61.333 0 -113.833 -5.5 -157.5 -16.5
s-86.334 -32.167 -128.001 -63.5s-73.334 -80.333 -95.001 -147s-32.5 -150.667 -32.5 -252s10.833 -185.333 32.5 -252s53.334 -115.667 95.001 -147s84.334 -52.5 128.001 -63.5s96.167 -16.5 157.5 -16.5c132.667 0 262.667 30 390 90v-229
c-113.333 -48 -229.666 -74.667 -348.999 -80l-123 -242h-213l177 244c-72.667 8 -138.667 24.667 -198 50s-116.333 63.166 -171 113.499s-97 121 -127 212s-45 197.833 -45 320.5z"/>
            <glyph glyph-name="Egrave" unicode="&#xc8;" horiz-adv-x="1204"
                   d="M178 0v1366h909v-221h-663v-346h575v-232h-575v-346h663v-221h-909zM397 1722h201l127 -239h-137z"/>
            <glyph glyph-name="Eacute" unicode="&#xc9;" horiz-adv-x="1204"
                   d="M178 0v1366h909v-221h-663v-346h575v-232h-575v-346h663v-221h-909zM555 1483l127 239h201l-191 -239h-137z"/>
            <glyph glyph-name="Ecircumflex" unicode="&#xca;" horiz-adv-x="1204"
                   d="M178 0v1366h909v-221h-663v-346h575v-232h-575v-346h663v-221h-909zM414 1483l186 250h98l189 -250h-164l-74 114l-74 -114h-161z"/>
            <glyph glyph-name="Edieresis" unicode="&#xcb;" horiz-adv-x="1204"
                   d="M178 0v1366h909v-221h-663v-346h575v-232h-575v-346h663v-221h-909zM389 1483v194h207v-194h-207zM717 1483v194h207v-194h-207z"/>
            <glyph glyph-name="Igrave" unicode="&#xcc;" horiz-adv-x="600"
                   d="M35 1722h201l126 -239h-137zM178 0h246v1366h-246v-1366z"/>
            <glyph glyph-name="Iacute" unicode="&#xcd;" horiz-adv-x="600"
                   d="M178 0h246v1366h-246v-1366zM240 1483l127 239h200l-190 -239h-137z"/>
            <glyph glyph-name="Icircumflex" unicode="&#xce;" horiz-adv-x="600"
                   d="M63 1483l187 250h98l189 -250h-164l-74 114l-74 -114h-162zM178 0h246v1366h-246v-1366z"/>
            <glyph glyph-name="Idieresis" unicode="&#xcf;" horiz-adv-x="600"
                   d="M33 1483v194h207v-194h-207zM178 0h246v1366h-246v-1366zM360 1483v194h207v-194h-207z"/>
            <glyph glyph-name="Eth" unicode="&#xd0;" horiz-adv-x="1509"
                   d="M106 598l0.000976562 168h162v600h471c211.333 0 371.666 -58 480.999 -174s164 -286 164 -510c0 -222.667 -54.5 -392 -163.5 -508s-269.5 -174 -481.5 -174h-471v598h-162zM514.001 223l225 -0.000976562c142 0 244.167 35.833 306.5 107.5s93.5 188.834 93.5 351.501
c0 164 -31.167 281.833 -93.5 353.5s-164.5 107.5 -306.5 107.5h-225v-377h242v-168h-242v-375z"/>
            <glyph glyph-name="Ntilde" unicode="&#xd1;" horiz-adv-x="1587"
                   d="M178 0v1366h279l702 -1012v1012h246v-1366h-275l-706 1020v-1020h-246zM481 1481v155c38 45.333 79.333 70 124 74c7.33301 0.666992 14.666 1 21.999 1c36.667 0 71.667 -8.33301 105 -25l122 -61c33.333 -16.667 68 -25 104 -25c7.33301 0 15 0.666992 23 2
c44 4 85 28.333 123 73v-155c-38 -45.333 -79 -70 -123 -74c-7.33301 -0.666992 -14.666 -1 -21.999 -1c-36 0 -71 8.33301 -105 25l-122 60c-33.333 17.333 -68 26 -104 26c-7.33301 0 -14.666 -0.666992 -21.999 -2c-44.667 -4 -86.334 -28.333 -125.001 -73z"/>
            <glyph glyph-name="Ograve" unicode="&#xd2;" horiz-adv-x="1538"
                   d="M125 682c0 112 13 210.333 39 295s59.5 152.167 100.5 202.5s90.5 91.333 148.5 123s114.667 52.834 170 63.501s115 16 179 16s123.667 -5.33301 179 -16s112 -31.834 170 -63.501s107.833 -72.667 149.5 -123s75.5 -117.833 101.5 -202.5s39 -183 39 -295
c0 -110.667 -13 -208.667 -39 -294s-59.833 -152.833 -101.5 -202.5s-91.5 -90.334 -149.5 -122.001s-114.667 -52.834 -170 -63.501s-115 -16 -179 -16s-123.667 5.33301 -179 16s-112 31.834 -170 63.501s-107.5 72.334 -148.5 122.001s-74.5 117.167 -100.5 202.5
s-39 183.333 -39 294zM371 684c0 -102.667 10.1641 -187.667 30.4971 -255s50.333 -116.833 90 -148.5s80.334 -53.167 122.001 -64.5s91.167 -17 148.5 -17c46.667 0 87 3 121 9s69 18.833 105 38.5s65.333 47 88 82s41.5 82.5 56.5 142.5s22.5 131 22.5 213
c0 101.333 -10.167 185.666 -30.5 252.999s-50.666 116.833 -90.999 148.5s-81 52.834 -122 63.501s-90.833 16 -149.5 16c-45.333 0 -85 -3 -119 -9s-69.167 -19 -105.5 -39s-65.666 -47 -87.999 -81s-41 -80.667 -56 -140s-22.5 -130 -22.5 -212zM517.997 1722h201
l127 -239h-137z"/>
            <glyph glyph-name="Oacute" unicode="&#xd3;" horiz-adv-x="1538"
                   d="M125 682c0 112 13 210.333 39 295s59.5 152.167 100.5 202.5s90.5 91.333 148.5 123s114.667 52.834 170 63.501s115 16 179 16s123.667 -5.33301 179 -16s112 -31.834 170 -63.501s107.833 -72.667 149.5 -123s75.5 -117.833 101.5 -202.5s39 -183 39 -295
c0 -110.667 -13 -208.667 -39 -294s-59.833 -152.833 -101.5 -202.5s-91.5 -90.334 -149.5 -122.001s-114.667 -52.834 -170 -63.501s-115 -16 -179 -16s-123.667 5.33301 -179 16s-112 31.834 -170 63.501s-107.5 72.334 -148.5 122.001s-74.5 117.167 -100.5 202.5
s-39 183.333 -39 294zM371 684c0 -102.667 10.1641 -187.667 30.4971 -255s50.333 -116.833 90 -148.5s80.334 -53.167 122.001 -64.5s91.167 -17 148.5 -17c46.667 0 87 3 121 9s69 18.833 105 38.5s65.333 47 88 82s41.5 82.5 56.5 142.5s22.5 131 22.5 213
c0 101.333 -10.167 185.666 -30.5 252.999s-50.666 116.833 -90.999 148.5s-81 52.834 -122 63.501s-90.833 16 -149.5 16c-45.333 0 -85 -3 -119 -9s-69.167 -19 -105.5 -39s-65.666 -47 -87.999 -81s-41 -80.667 -56 -140s-22.5 -130 -22.5 -212zM679.997 1483l127 239
h201l-191 -239h-137z"/>
            <glyph glyph-name="Ocircumflex" unicode="&#xd4;" horiz-adv-x="1538"
                   d="M125 682c0 112 13 210.333 39 295s59.5 152.167 100.5 202.5s90.5 91.333 148.5 123s114.667 52.834 170 63.501s115 16 179 16s123.667 -5.33301 179 -16s112 -31.834 170 -63.501s107.833 -72.667 149.5 -123s75.5 -117.833 101.5 -202.5s39 -183 39 -295
c0 -110.667 -13 -208.667 -39 -294s-59.833 -152.833 -101.5 -202.5s-91.5 -90.334 -149.5 -122.001s-114.667 -52.834 -170 -63.501s-115 -16 -179 -16s-123.667 5.33301 -179 16s-112 31.834 -170 63.501s-107.5 72.334 -148.5 122.001s-74.5 117.167 -100.5 202.5
s-39 183.333 -39 294zM371 684c0 -102.667 10.1641 -187.667 30.4971 -255s50.333 -116.833 90 -148.5s80.334 -53.167 122.001 -64.5s91.167 -17 148.5 -17c46.667 0 87 3 121 9s69 18.833 105 38.5s65.333 47 88 82s41.5 82.5 56.5 142.5s22.5 131 22.5 213
c0 101.333 -10.167 185.666 -30.5 252.999s-50.666 116.833 -90.999 148.5s-81 52.834 -122 63.501s-90.833 16 -149.5 16c-45.333 0 -85 -3 -119 -9s-69.167 -19 -105.5 -39s-65.666 -47 -87.999 -81s-41 -80.667 -56 -140s-22.5 -130 -22.5 -212zM525.997 1483l187 250h98
l188 -250h-163l-74 114l-74 -114h-162z"/>
            <glyph glyph-name="Otilde" unicode="&#xd5;" horiz-adv-x="1538"
                   d="M125 682c0 112 13 210.333 39 295s59.5 152.167 100.5 202.5s90.5 91.333 148.5 123s114.667 52.834 170 63.501s115 16 179 16s123.667 -5.33301 179 -16s112 -31.834 170 -63.501s107.833 -72.667 149.5 -123s75.5 -117.833 101.5 -202.5s39 -183 39 -295
c0 -110.667 -13 -208.667 -39 -294s-59.833 -152.833 -101.5 -202.5s-91.5 -90.334 -149.5 -122.001s-114.667 -52.834 -170 -63.501s-115 -16 -179 -16s-123.667 5.33301 -179 16s-112 31.834 -170 63.501s-107.5 72.334 -148.5 122.001s-74.5 117.167 -100.5 202.5
s-39 183.333 -39 294zM371 684c0 -102.667 10.1641 -187.667 30.4971 -255s50.333 -116.833 90 -148.5s80.334 -53.167 122.001 -64.5s91.167 -17 148.5 -17c46.667 0 87 3 121 9s69 18.833 105 38.5s65.333 47 88 82s41.5 82.5 56.5 142.5s22.5 131 22.5 213
c0 101.333 -10.167 185.666 -30.5 252.999s-50.666 116.833 -90.999 148.5s-81 52.834 -122 63.501s-90.833 16 -149.5 16c-45.333 0 -85 -3 -119 -9s-69.167 -19 -105.5 -39s-65.666 -47 -87.999 -81s-41 -80.667 -56 -140s-22.5 -130 -22.5 -212zM450.997 1481
l0.000976562 155c38 45.333 79 70 123 74c7.33301 0.666992 14.666 1 21.999 1c36.667 0 72 -8.33301 106 -25l122 -61c33.333 -16.667 67.666 -25 102.999 -25c8 0 15.667 0.666992 23 2c44 4 85 28.333 123 73v-155c-38 -45.333 -79 -70 -123 -74
c-7.33301 -0.666992 -14.666 -1 -21.999 -1c-35.333 0 -70 8.33301 -104 25l-122 60c-34 17.333 -69 26 -105 26c-7.33301 0 -15 -0.666992 -23 -2c-44 -4 -85 -28.333 -123 -73z"/>
            <glyph glyph-name="Odieresis" unicode="&#xd6;" horiz-adv-x="1538"
                   d="M125 682c0 112 13 210.333 39 295s59.5 152.167 100.5 202.5s90.5 91.333 148.5 123s114.667 52.834 170 63.501s115 16 179 16s123.667 -5.33301 179 -16s112 -31.834 170 -63.501s107.833 -72.667 149.5 -123s75.5 -117.833 101.5 -202.5s39 -183 39 -295
c0 -110.667 -13 -208.667 -39 -294s-59.833 -152.833 -101.5 -202.5s-91.5 -90.334 -149.5 -122.001s-114.667 -52.834 -170 -63.501s-115 -16 -179 -16s-123.667 5.33301 -179 16s-112 31.834 -170 63.501s-107.5 72.334 -148.5 122.001s-74.5 117.167 -100.5 202.5
s-39 183.333 -39 294zM371 684c0 -102.667 10.1641 -187.667 30.4971 -255s50.333 -116.833 90 -148.5s80.334 -53.167 122.001 -64.5s91.167 -17 148.5 -17c46.667 0 87 3 121 9s69 18.833 105 38.5s65.333 47 88 82s41.5 82.5 56.5 142.5s22.5 131 22.5 213
c0 101.333 -10.167 185.666 -30.5 252.999s-50.666 116.833 -90.999 148.5s-81 52.834 -122 63.501s-90.833 16 -149.5 16c-45.333 0 -85 -3 -119 -9s-69.167 -19 -105.5 -39s-65.666 -47 -87.999 -81s-41 -80.667 -56 -140s-22.5 -130 -22.5 -212zM495.997 1483v194h206
v-194h-206zM822.997 1483v194h207v-194h-207z"/>
            <glyph glyph-name="multiply" unicode="&#xd7;" horiz-adv-x="1062"
                   d="M156 160l282 364l-282 365h184l190 -246l193 246h182l-280 -365l280 -364h-182l-193 243l-190 -243h-184z"/>
            <glyph glyph-name="Oslash" unicode="&#xd8;" horiz-adv-x="1529"
                   d="M68 0l178.001 211.001c-80.667 116 -121 273 -121 471c0 112 13 210.333 39 295s59.5 152.167 100.5 202.5s90.5 91.333 148.5 123s114.667 52.834 170 63.501s115 16 179 16c155.333 0 283.666 -34 384.999 -102l74 86h237l-180 -213c82 -118.667 123 -275.667 123 -471
c0 -110.667 -13 -208.667 -39 -294s-59.833 -152.833 -101.5 -202.5s-91.5 -90.334 -149.5 -122.001s-114.667 -52.834 -170 -63.501s-115 -16 -179 -16c-155.333 0 -284.333 33.333 -387 100l-70 -84h-237zM371.001 684.001c0 -112 12.999 -204.667 38.999 -278l594 702
c-56 38 -136.667 57 -242 57c-45.333 0 -85 -3 -119 -9s-69.167 -19 -105.5 -39s-65.666 -47 -87.999 -81s-41 -80.667 -56 -140s-22.5 -130 -22.5 -212zM520 256.001c56 -38 136.667 -57 242 -57c46.667 0 87 3 121 9s69 18.833 105 38.5s65.333 47 88 82
s41.5 82.5 56.5 142.5s22.5 131 22.5 213c0 108 -13.667 199.333 -41 274z"/>
            <glyph glyph-name="Ugrave" unicode="&#xd9;" horiz-adv-x="1511"
                   d="M178 578l0.00195312 788h246v-809c0 -120 26 -208 78 -264s134.667 -84 248 -84s196.166 28 248.499 84s78.5 144 78.5 264v809h246v-788c0 -188.667 -50.167 -334.834 -150.5 -438.501s-241.333 -155.5 -423 -155.5s-322.334 51.833 -422.001 155.5
s-149.5 249.834 -149.5 438.501zM506.002 1722h201l127 -239h-138z"/>
            <glyph glyph-name="Uacute" unicode="&#xda;" horiz-adv-x="1511"
                   d="M178 578l0.00195312 788h246v-809c0 -120 26 -208 78 -264s134.667 -84 248 -84s196.166 28 248.499 84s78.5 144 78.5 264v809h246v-788c0 -188.667 -50.167 -334.834 -150.5 -438.501s-241.333 -155.5 -423 -155.5s-322.334 51.833 -422.001 155.5
s-149.5 249.834 -149.5 438.501zM668.002 1483l127 239h200l-190 -239h-137z"/>
            <glyph glyph-name="Ucircumflex" unicode="&#xdb;" horiz-adv-x="1511"
                   d="M178 578l0.00195312 788h246v-809c0 -120 26 -208 78 -264s134.667 -84 248 -84s196.166 28 248.499 84s78.5 144 78.5 264v809h246v-788c0 -188.667 -50.167 -334.834 -150.5 -438.501s-241.333 -155.5 -423 -155.5s-322.334 51.833 -422.001 155.5
s-149.5 249.834 -149.5 438.501zM514.002 1483l186 250h99l188 -250h-164l-73 114l-74 -114h-162z"/>
            <glyph glyph-name="Udieresis" unicode="&#xdc;" horiz-adv-x="1511"
                   d="M178 578l0.00195312 788h246v-809c0 -120 26 -208 78 -264s134.667 -84 248 -84s196.166 28 248.499 84s78.5 144 78.5 264v809h246v-788c0 -188.667 -50.167 -334.834 -150.5 -438.501s-241.333 -155.5 -423 -155.5s-322.334 51.833 -422.001 155.5
s-149.5 249.834 -149.5 438.501zM483.002 1483v194h207v-194h-207zM811.002 1483v194h207v-194h-207z"/>
            <glyph glyph-name="Yacute" unicode="&#xdd;" horiz-adv-x="1368"
                   d="M25 1366h297l362 -555l360 555h297l-534 -780v-586h-246v586zM594 1483l127 239h201l-191 -239h-137z"/>
            <glyph glyph-name="Thorn" unicode="&#xde;" horiz-adv-x="1253"
                   d="M176 0v1366h246v-172h209c161.333 0 286 -40 374 -120s132 -193 132 -339s-44.167 -259 -132.5 -339s-212.833 -120 -373.5 -120h-209v-276h-246zM422 500h190c108 0 181.833 19.667 221.5 59s59.5 98 59.5 176c0 76.667 -19.833 134.5 -59.5 173.5
s-113.5 58.5 -221.5 58.5h-190v-467z"/>
            <glyph glyph-name="germandbls" unicode="&#xdf;" horiz-adv-x="1255"
                   d="M180 0l-0.00195312 856.004c0 104 13.333 192.5 40 265.5s62.834 127.167 108.501 162.5s92.5 60.5 140.5 75.5s100 22.5 156 22.5c148.667 0 263.334 -37.667 344.001 -113s121 -163.666 121 -264.999c0 -72.667 -21.167 -135 -63.5 -187s-86.833 -86.667 -133.5 -104
c24.667 -6.66699 48.167 -15.834 70.5 -27.501s49.666 -28.834 81.999 -51.501s58 -53.834 77 -93.501s28.5 -84.5 28.5 -134.5c0 -134 -53.333 -237.333 -160 -310c-96 -64.667 -217.333 -97 -364 -97c-16 0 -32.333 0.333008 -49 1v199h12c222.667 0 334 71.667 334 215
c0 128.667 -115.333 196.667 -346 204v181c44 0 85.333 3.66699 124 11s76.334 26.666 113.001 57.999s55 73.666 55 126.999c0 142 -73 213 -219 213c-34 0 -63.667 -4.33301 -89 -13s-50.5 -24.667 -75.5 -48s-44.333 -59.833 -58 -109.5s-20.5 -112.167 -20.5 -187.5
v-850h-228z"/>
            <glyph glyph-name="agrave" unicode="&#xe0;" horiz-adv-x="1110"
                   d="M115 334c0 20.667 2.00195 41.8301 6.00195 63.4971s14.5 48.834 31.5 81.501s40.167 61.334 69.5 86.001s72.666 45.834 129.999 63.501s125 26.5 203 26.5c56 0 116 -4.66699 180 -14c0 128.667 -72.333 193 -217 193c-114.667 0 -214.334 -17.333 -299.001 -52v199
c94 38 198.333 57 313 57c146 0 257.667 -37.167 335 -111.5s116 -181.833 116 -322.5v-276c0 -94 -35.167 -174.833 -105.5 -242.5s-178.5 -101.5 -324.5 -101.5c-150 0 -260.5 34 -331.5 102s-106.5 150.667 -106.5 248zM313.002 1395h201l127 -240h-137zM358.002 364.996
c0 -109.333 64.333 -164 193 -164h2c122.667 0 184 51.667 184 155v129c-57.333 8 -106.333 12.333 -147 13c-154 0 -231.333 -44.333 -232 -133z"/>
            <glyph glyph-name="aacute" unicode="&#xe1;" horiz-adv-x="1110"
                   d="M115 334c0 20.667 2.00195 41.8301 6.00195 63.4971s14.5 48.834 31.5 81.501s40.167 61.334 69.5 86.001s72.666 45.834 129.999 63.501s125 26.5 203 26.5c56 0 116 -4.66699 180 -14c0 128.667 -72.333 193 -217 193c-114.667 0 -214.334 -17.333 -299.001 -52v199
c94 38 198.333 57 313 57c146 0 257.667 -37.167 335 -111.5s116 -181.833 116 -322.5v-276c0 -94 -35.167 -174.833 -105.5 -242.5s-178.5 -101.5 -324.5 -101.5c-150 0 -260.5 34 -331.5 102s-106.5 150.667 -106.5 248zM358.002 364.996c0 -109.333 64.333 -164 193 -164
h2c122.667 0 184 51.667 184 155v129c-57.333 8 -106.333 12.333 -147 13c-154 0 -231.333 -44.333 -232 -133zM459.002 1155l127 240h200l-190 -240h-137z"/>
            <glyph glyph-name="acircumflex" unicode="&#xe2;" horiz-adv-x="1110"
                   d="M115 334c0 20.667 2.00195 41.8301 6.00195 63.4971s14.5 48.834 31.5 81.501s40.167 61.334 69.5 86.001s72.666 45.834 129.999 63.501s125 26.5 203 26.5c56 0 116 -4.66699 180 -14c0 128.667 -72.333 193 -217 193c-114.667 0 -214.334 -17.333 -299.001 -52v199
c94 38 198.333 57 313 57c146 0 257.667 -37.167 335 -111.5s116 -181.833 116 -322.5v-276c0 -94 -35.167 -174.833 -105.5 -242.5s-178.5 -101.5 -324.5 -101.5c-150 0 -260.5 34 -331.5 102s-106.5 150.667 -106.5 248zM338.002 1155l186 250h99l188 -250h-164l-74 115
l-73 -115h-162zM358.002 364.996c0 -109.333 64.333 -164 193 -164h2c122.667 0 184 51.667 184 155v129c-57.333 8 -106.333 12.333 -147 13c-154 0 -231.333 -44.333 -232 -133z"/>
            <glyph glyph-name="atilde" unicode="&#xe3;" horiz-adv-x="1110"
                   d="M115 334c0 20.667 2.00195 41.8301 6.00195 63.4971s14.5 48.834 31.5 81.501s40.167 61.334 69.5 86.001s72.666 45.834 129.999 63.501s125 26.5 203 26.5c56 0 116 -4.66699 180 -14c0 128.667 -72.333 193 -217 193c-114.667 0 -214.334 -17.333 -299.001 -52v199
c94 38 198.333 57 313 57c146 0 257.667 -37.167 335 -111.5s116 -181.833 116 -322.5v-276c0 -94 -35.167 -174.833 -105.5 -242.5s-178.5 -101.5 -324.5 -101.5c-150 0 -260.5 34 -331.5 102s-106.5 150.667 -106.5 248zM258.002 1153l-0.000976562 156
c38 45.333 79.333 70 124 74c7.33301 0.666992 14.666 1 21.999 1c36.667 0 71.667 -8.66699 105 -26l121 -60c34.667 -16.667 69.667 -25 105 -25c7.33301 0 15 0.333008 23 1c43.333 4 84.333 28.667 123 74v-156c-38 -45.333 -79 -70 -123 -74
c-7.33301 -0.666992 -14.666 -1 -21.999 -1c-36 0 -71.333 8.33301 -106 25l-121 60c-33.333 17.333 -68.333 26 -105 26c-7.33301 0 -14.666 -0.333008 -21.999 -1c-44.667 -4 -86 -28.667 -124 -74zM358.001 364.996c0 -109.333 64.333 -164 193 -164h2
c122.667 0 184 51.667 184 155v129c-57.333 8 -106.333 12.333 -147 13c-154 0 -231.333 -44.333 -232 -133z"/>
            <glyph glyph-name="adieresis" unicode="&#xe4;" horiz-adv-x="1110"
                   d="M115 334c0 20.667 2.00195 41.8301 6.00195 63.4971s14.5 48.834 31.5 81.501s40.167 61.334 69.5 86.001s72.666 45.834 129.999 63.501s125 26.5 203 26.5c56 0 116 -4.66699 180 -14c0 128.667 -72.333 193 -217 193c-114.667 0 -214.334 -17.333 -299.001 -52v199
c94 38 198.333 57 313 57c146 0 257.667 -37.167 335 -111.5s116 -181.833 116 -322.5v-276c0 -94 -35.167 -174.833 -105.5 -242.5s-178.5 -101.5 -324.5 -101.5c-150 0 -260.5 34 -331.5 102s-106.5 150.667 -106.5 248zM287.002 1155v195h207v-195h-207zM358.002 364.996
c0 -109.333 64.333 -164 193 -164h2c122.667 0 184 51.667 184 155v129c-57.333 8 -106.333 12.333 -147 13c-154 0 -231.333 -44.333 -232 -133zM614.002 1155v195h207v-195h-207z"/>
            <glyph glyph-name="aring" unicode="&#xe5;" horiz-adv-x="1110"
                   d="M115 334c0 20.667 2.00195 41.8301 6.00195 63.4971s14.5 48.834 31.5 81.501s40.167 61.334 69.5 86.001s72.666 45.834 129.999 63.501s125 26.5 203 26.5c56 0 116 -4.66699 180 -14c0 128.667 -72.333 193 -217 193c-114.667 0 -214.334 -17.333 -299.001 -52v199
c94 38 198.333 57 313 57c146 0 257.667 -37.167 335 -111.5s116 -181.833 116 -322.5v-276c0 -94 -35.167 -174.833 -105.5 -242.5s-178.5 -101.5 -324.5 -101.5c-150 0 -260.5 34 -331.5 102s-106.5 150.667 -106.5 248zM358.002 364.996c0 -109.333 64.333 -164 193 -164
h2c122.667 0 184 51.667 184 155v129c-57.333 8 -106.333 12.333 -147 13c-154 0 -231.333 -44.333 -232 -133zM389.002 1272c0 56 15.667 99.333 47 130s75 46 131 46c57.333 0 101.333 -15.333 132 -46s46 -74 46 -130s-15.333 -99.333 -46 -130s-74.667 -46 -132 -46
c-56 0 -99.667 15.333 -131 46s-47 74 -47 130zM498.002 1272c0 -32.667 5 -55.5 15 -68.5s28 -19.5 54 -19.5s44.167 6.5 54.5 19.5s15.5 35.833 15.5 68.5s-5.16699 55.5 -15.5 68.5s-28.5 19.5 -54.5 19.5s-44 -6.5 -54 -19.5s-15 -35.833 -15 -68.5z"/>
            <glyph glyph-name="ae" unicode="&#xe6;" horiz-adv-x="1792"
                   d="M109 334c0 20.667 2.00195 41.8281 6.00195 63.4951s14.5 48.834 31.5 81.501s40.167 61.334 69.5 86.001s72.666 45.834 129.999 63.501s125 26.5 203 26.5c56 0 116 -4.66699 180 -14c0 128.667 -72.333 193 -217 193c-114.667 0 -214.334 -17.333 -299.001 -52v199
c94 38 198.333 57 313 57c157.333 0 270 -47.667 338 -143c23.333 38 63.666 71.667 120.999 101s123.666 44 198.999 44c150 0 263.5 -47.667 340.5 -143s115.5 -212.666 115.5 -351.999c0 -57.333 -1.33301 -99.666 -4 -126.999h-657
c6.66699 -88.667 33.167 -148 79.5 -178s106.5 -45 180.5 -45c120 0 236 26.333 348 79v-198c-113.333 -61.333 -241.666 -92 -384.999 -92c-69.333 0 -133.666 14.333 -192.999 43s-104.333 62.667 -135 102c-70.667 -96.667 -179.667 -145 -327 -145
c-150 0 -260.5 34 -331.5 102s-106.5 150.667 -106.5 248zM352.002 364.994c0 -109.333 64.333 -164 193 -164h2c122.667 0 184 51.667 184 155v129c-57.333 8 -106.333 12.333 -147 13c-154 0 -231.333 -44.333 -232 -133zM979.002 587.994h411.999
c-6.66699 70.667 -27.5 130.334 -62.5 179.001s-83.167 73 -144.5 73s-109.166 -19.833 -143.499 -59.5s-54.833 -103.834 -61.5 -192.501z"/>
            <glyph glyph-name="ccedilla" unicode="&#xe7;" horiz-adv-x="966"
                   d="M119 510c0 170.667 41.6689 301.332 125.002 391.999s202.666 136 357.999 136c100 0 198.333 -19 295 -57v-205c-80.667 32.667 -165.334 49 -254.001 49c-94 0 -163.833 -21.5 -209.5 -64.5s-68.5 -126.5 -68.5 -250.5c0 -122.667 22.833 -205.834 68.5 -249.501
s115.5 -65.5 209.5 -65.5c84.667 0 169.334 17 254.001 51v-205c-70.667 -30 -146.334 -47.667 -227.001 -53l-123 -244h-213l176 246c-126.667 16.667 -223.5 69.334 -290.5 158.001s-100.5 209.334 -100.5 362.001z"/>
            <glyph glyph-name="egrave" unicode="&#xe8;" horiz-adv-x="1144"
                   d="M129 500c0 164 36.5 294.999 109.5 392.999s188.833 147 347.5 147c150 0 263.5 -47.667 340.5 -143s115.5 -212.666 115.5 -351.999c0 -57.333 -1.33301 -99.666 -4 -126.999h-657c6.66699 -88.667 33.167 -148 79.5 -178s106.5 -45 180.5 -45c120 0 236 26.333 348 79
v-198c-113.333 -61.333 -241.666 -92 -384.999 -92c-45.333 0 -88 3.66699 -128 11s-81.833 22.666 -125.5 45.999s-81.334 53 -113.001 89s-57.667 85.833 -78 149.5s-30.5 137.167 -30.5 220.5zM334 1395h201l127 -240h-138zM381 587.999h411.999
c-6.66699 70.667 -27.5 130.334 -62.5 179.001s-83.167 73 -144.5 73s-109.166 -19.833 -143.499 -59.5s-54.833 -103.834 -61.5 -192.501z"/>
            <glyph glyph-name="eacute" unicode="&#xe9;" horiz-adv-x="1144"
                   d="M129 500c0 164 36.5 294.999 109.5 392.999s188.833 147 347.5 147c150 0 263.5 -47.667 340.5 -143s115.5 -212.666 115.5 -351.999c0 -57.333 -1.33301 -99.666 -4 -126.999h-657c6.66699 -88.667 33.167 -148 79.5 -178s106.5 -45 180.5 -45c120 0 236 26.333 348 79
v-198c-113.333 -61.333 -241.666 -92 -384.999 -92c-45.333 0 -88 3.66699 -128 11s-81.833 22.666 -125.5 45.999s-81.334 53 -113.001 89s-57.667 85.833 -78 149.5s-30.5 137.167 -30.5 220.5zM381 587.999h411.999c-6.66699 70.667 -27.5 130.334 -62.5 179.001
s-83.167 73 -144.5 73s-109.166 -19.833 -143.499 -59.5s-54.833 -103.834 -61.5 -192.501zM495.999 1155l127 240h200l-190 -240h-137z"/>
            <glyph glyph-name="ecircumflex" unicode="&#xea;" horiz-adv-x="1144"
                   d="M129 500c0 164 36.5 294.999 109.5 392.999s188.833 147 347.5 147c150 0 263.5 -47.667 340.5 -143s115.5 -212.666 115.5 -351.999c0 -57.333 -1.33301 -99.666 -4 -126.999h-657c6.66699 -88.667 33.167 -148 79.5 -178s106.5 -45 180.5 -45c120 0 236 26.333 348 79
v-198c-113.333 -61.333 -241.666 -92 -384.999 -92c-45.333 0 -88 3.66699 -128 11s-81.833 22.666 -125.5 45.999s-81.334 53 -113.001 89s-57.667 85.833 -78 149.5s-30.5 137.167 -30.5 220.5zM346 1155l186 250h99l188 -250h-164l-73 115l-74 -115h-162zM381 587.999
h411.999c-6.66699 70.667 -27.5 130.334 -62.5 179.001s-83.167 73 -144.5 73s-109.166 -19.833 -143.499 -59.5s-54.833 -103.834 -61.5 -192.501z"/>
            <glyph glyph-name="edieresis" unicode="&#xeb;" horiz-adv-x="1144"
                   d="M129 500c0 164 36.5 294.999 109.5 392.999s188.833 147 347.5 147c150 0 263.5 -47.667 340.5 -143s115.5 -212.666 115.5 -351.999c0 -57.333 -1.33301 -99.666 -4 -126.999h-657c6.66699 -88.667 33.167 -148 79.5 -178s106.5 -45 180.5 -45c120 0 236 26.333 348 79
v-198c-113.333 -61.333 -241.666 -92 -384.999 -92c-45.333 0 -88 3.66699 -128 11s-81.833 22.666 -125.5 45.999s-81.334 53 -113.001 89s-57.667 85.833 -78 149.5s-30.5 137.167 -30.5 220.5zM309 1155v195h207v-195h-207zM381 587.999h411.999
c-6.66699 70.667 -27.5 130.334 -62.5 179.001s-83.167 73 -144.5 73s-109.166 -19.833 -143.499 -59.5s-54.833 -103.834 -61.5 -192.501zM636.999 1155v195h207v-195h-207z"/>
            <glyph glyph-name="igrave" unicode="&#xec;" horiz-adv-x="638"
                   d="M63 1395h201l127 -240h-137zM197 0h245v1022h-245v-1022z"/>
            <glyph glyph-name="iacute" unicode="&#xed;" horiz-adv-x="638"
                   d="M197 0h245v1022h-245v-1022zM248 1155l127 240h200l-190 -240h-137z"/>
            <glyph glyph-name="icircumflex" unicode="&#xee;" horiz-adv-x="638"
                   d="M84 1155l186 250h99l188 -250h-164l-74 115l-73 -115h-162zM197 0h245v1022h-245v-1022z"/>
            <glyph glyph-name="idieresis" unicode="&#xef;" horiz-adv-x="638"
                   d="M53 1155v195h207v-195h-207zM197 0h245v1022h-245v-1022zM381 1155v195h207v-195h-207z"/>
            <glyph glyph-name="eth" unicode="&#xf0;" horiz-adv-x="1232"
                   d="M117 461c0 140.667 40.1689 251.166 120.502 331.499s194.5 120.5 342.5 120.5c106.667 0 189.667 -23 249 -69c-18 101.333 -66.333 180.333 -145 237l-180 -123l-78 113l104 74c-27.333 6.66699 -57.333 10 -90 10c-54.667 0 -103 -3.33301 -145 -10v219
c61.333 13.333 114.666 20 159.999 20c118.667 0 223.667 -25 315 -75l162 112l78 -114l-123 -84c132.667 -130 198.667 -328 198 -594c0 -430 -161.667 -645 -485 -645c-84.667 0 -159.334 14.333 -224.001 43s-115.167 66.834 -151.5 114.501s-63.333 98.5 -81 152.5
s-26.5 109.667 -26.5 167zM365.002 462.999c0 -20.667 2.33008 -42.6689 6.99707 -66.002s13.834 -51.333 27.501 -84s37.834 -59.5 72.501 -80.5s77.334 -31.5 128.001 -31.5c26 0 51.333 5.33301 76 16s51 29.667 79 57s49.667 71.333 65 132
c12.667 50.667 19 110.334 19 179.001c0 12.667 -0.333008 25.334 -1 38.001c-68.667 46 -146.667 69 -234 69h-4c-75.333 0 -133.333 -20.833 -174 -62.5s-61 -97.167 -61 -166.5z"/>
            <glyph glyph-name="ntilde" unicode="&#xf1;" horiz-adv-x="1273"
                   d="M168 0v926.001c150 74.667 306.333 112 469 112c142 0 253 -37.167 333 -111.5s120 -178.5 120 -312.5v-614h-244v635c0 27.333 -2.5 50.166 -7.5 68.499s-15 37.5 -30 57.5s-39.5 35 -73.5 45s-77.667 15 -131 15c-60 0 -123.333 -6 -190 -18v-803h-246zM326 1153v156
c38 45.333 79.333 70 124 74c6.66699 0.666992 13.667 1 21 1c36.667 0 71.667 -8.66699 105 -26l122 -60c34.667 -16.667 69.667 -25 105 -25c7.33301 0 15 0.333008 23 1c43.333 4 84 28.667 122 74v-156c-38 -45.333 -78.667 -70 -122 -74
c-8 -0.666992 -15.667 -1 -23 -1c-35.333 0 -70.333 8.33301 -105 25l-122 60c-33.333 17.333 -68.333 26 -105 26c-7.33301 0 -14.333 -0.333008 -21 -1c-44.667 -4 -86 -28.667 -124 -74z"/>
            <glyph glyph-name="ograve" unicode="&#xf2;" horiz-adv-x="1159"
                   d="M100 510c0 169.333 41.667 299.333 125 390s202.833 136 358.5 136s275.167 -45.333 358.5 -136s125 -220.667 125 -390s-41.667 -299.333 -125 -390s-202.833 -136 -358.5 -136s-275.167 45.333 -358.5 136s-125 220.667 -125 390zM326 1395h200l127 -240h-137z
M346 509.5c0 -127 19.5 -212.667 58.5 -257s98.833 -66.5 179.5 -66.5s140.334 22.167 179.001 66.5s58 130 58 257s-19.333 212.833 -58 257.5s-98.334 67 -179.001 67s-140.5 -22.333 -179.5 -67s-58.5 -130.5 -58.5 -257.5z"/>
            <glyph glyph-name="oacute" unicode="&#xf3;" horiz-adv-x="1159"
                   d="M100 510c0 169.333 41.667 299.333 125 390s202.833 136 358.5 136s275.167 -45.333 358.5 -136s125 -220.667 125 -390s-41.667 -299.333 -125 -390s-202.833 -136 -358.5 -136s-275.167 45.333 -358.5 136s-125 220.667 -125 390zM346 509.5
c0 -127 19.5 -212.667 58.5 -257s98.833 -66.5 179.5 -66.5s140.334 22.167 179.001 66.5s58 130 58 257s-19.333 212.833 -58 257.5s-98.334 67 -179.001 67s-140.5 -22.333 -179.5 -67s-58.5 -130.5 -58.5 -257.5zM514 1155l127 240h201l-191 -240h-137z"/>
            <glyph glyph-name="ocircumflex" unicode="&#xf4;" horiz-adv-x="1159"
                   d="M100 510c0 169.333 41.667 299.333 125 390s202.833 136 358.5 136s275.167 -45.333 358.5 -136s125 -220.667 125 -390s-41.667 -299.333 -125 -390s-202.833 -136 -358.5 -136s-275.167 45.333 -358.5 136s-125 220.667 -125 390zM346 509.5
c0 -127 19.5 -212.667 58.5 -257s98.833 -66.5 179.5 -66.5s140.334 22.167 179.001 66.5s58 130 58 257s-19.333 212.833 -58 257.5s-98.334 67 -179.001 67s-140.5 -22.333 -179.5 -67s-58.5 -130.5 -58.5 -257.5zM348 1155l187 250h98l188 -250h-164l-73 115l-74 -115
h-162z"/>
            <glyph glyph-name="otilde" unicode="&#xf5;" horiz-adv-x="1159"
                   d="M100 510c0 169.333 41.667 299.333 125 390s202.833 136 358.5 136s275.167 -45.333 358.5 -136s125 -220.667 125 -390s-41.667 -299.333 -125 -390s-202.833 -136 -358.5 -136s-275.167 45.333 -358.5 136s-125 220.667 -125 390zM272 1153v156
c38 45.333 79.333 70 124 74c7.33301 0.666992 14.666 1 21.999 1c36.667 0 72 -8.66699 106 -26l122 -60c34 -16.667 68.667 -25 104 -25c7.33301 0 14.666 0.333008 21.999 1c44 4 85 28.667 123 74v-156c-38 -45.333 -79 -70 -123 -74
c-7.33301 -0.666992 -14.666 -1 -21.999 -1c-35.333 0 -70 8.33301 -104 25l-122 60c-34 17.333 -69.333 26 -106 26c-7.33301 0 -14.666 -0.333008 -21.999 -1c-44 -4 -85.333 -28.667 -124 -74zM346 509.5c0 -127 19.5 -212.667 58.5 -257s98.833 -66.5 179.5 -66.5
s140.334 22.167 179.001 66.5s58 130 58 257s-19.333 212.833 -58 257.5s-98.334 67 -179.001 67s-140.5 -22.333 -179.5 -67s-58.5 -130.5 -58.5 -257.5z"/>
            <glyph glyph-name="odieresis" unicode="&#xf6;" horiz-adv-x="1159"
                   d="M100 510c0 169.333 41.667 299.333 125 390s202.833 136 358.5 136s275.167 -45.333 358.5 -136s125 -220.667 125 -390s-41.667 -299.333 -125 -390s-202.833 -136 -358.5 -136s-275.167 45.333 -358.5 136s-125 220.667 -125 390zM317 1155v195h207v-195h-207z
M346 509.5c0 -127 19.5 -212.667 58.5 -257s98.833 -66.5 179.5 -66.5s140.334 22.167 179.001 66.5s58 130 58 257s-19.333 212.833 -58 257.5s-98.334 67 -179.001 67s-140.5 -22.333 -179.5 -67s-58.5 -130.5 -58.5 -257.5zM645 1155v195h207v-195h-207z"/>
            <glyph glyph-name="divide" unicode="&#xf7;" horiz-adv-x="1286"
                   d="M211 446v164h866v-164h-866zM541 129v193h207v-193h-207zM541 737v193h207v-193h-207z"/>
            <glyph glyph-name="oslash" unicode="&#xf8;" horiz-adv-x="1175"
                   d="M39 0l146.998 176c-54.667 88.667 -82 200 -82 334c0 169.333 41.667 299.333 125 390s203 136 359 136c109.333 0 199.333 -21 270 -63l43 49h238l-150 -176c54.667 -84.667 82 -196.667 82 -336c0 -169.333 -41.667 -299.333 -125 -390s-202.666 -136 -357.999 -136
c-105.333 0 -195.666 21.667 -270.999 65l-41 -49h-237zM349.998 510c0 -45.333 3.33203 -88.332 9.99902 -128.999l361 426c-31.333 18 -75.666 27 -132.999 27c-80.667 0 -140.5 -22.333 -179.5 -67s-58.5 -130.334 -58.5 -257.001zM456.997 215.001
c34 -19.333 77.666 -29.002 130.999 -29.002c80.667 0 140.334 22.333 179.001 67s58 130.334 58 257.001c0 54.667 -2.66699 98.334 -8 131.001z"/>
            <glyph glyph-name="ugrave" unicode="&#xf9;" horiz-adv-x="1259"
                   d="M168 463l0.000976562 559h248v-592c0 -82 16.667 -141 50 -177s87.666 -54 162.999 -54c76.667 0 131.667 18 165 54s50 95 50 177v592h248v-559c0 -150 -41 -267.333 -123 -352s-195.333 -127 -340 -127s-257.667 42.333 -339 127s-122 202 -122 352zM381.001 1395h201
l127 -240h-138z"/>
            <glyph glyph-name="uacute" unicode="&#xfa;" horiz-adv-x="1259"
                   d="M168 463l0.000976562 559h248v-592c0 -82 16.667 -141 50 -177s87.666 -54 162.999 -54c76.667 0 131.667 18 165 54s50 95 50 177v592h248v-559c0 -150 -41 -267.333 -123 -352s-195.333 -127 -340 -127s-257.667 42.333 -339 127s-122 202 -122 352zM551.001 1155
l127 240h201l-191 -240h-137z"/>
            <glyph glyph-name="ucircumflex" unicode="&#xfb;" horiz-adv-x="1259"
                   d="M168 463l0.000976562 559h248v-592c0 -82 16.667 -141 50 -177s87.666 -54 162.999 -54c76.667 0 131.667 18 165 54s50 95 50 177v592h248v-559c0 -150 -41 -267.333 -123 -352s-195.333 -127 -340 -127s-257.667 42.333 -339 127s-122 202 -122 352zM393.001 1155
l187 250h98l188 -250h-164l-73 115l-74 -115h-162z"/>
            <glyph glyph-name="udieresis" unicode="&#xfc;" horiz-adv-x="1259"
                   d="M168 463l0.000976562 559h248v-592c0 -82 16.667 -141 50 -177s87.666 -54 162.999 -54c76.667 0 131.667 18 165 54s50 95 50 177v592h248v-559c0 -150 -41 -267.333 -123 -352s-195.333 -127 -340 -127s-257.667 42.333 -339 127s-122 202 -122 352zM362.001 1155v195
h207v-195h-207zM690.001 1155v195h207v-195h-207z"/>
            <glyph glyph-name="yacute" unicode="&#xfd;" horiz-adv-x="1107"
                   d="M63 1022l261 0.000976562l229 -713l225 713h260l-389 -1047c-54.667 -148.667 -114 -248.834 -178 -300.501s-130.333 -77.5 -199 -77.5c-50.667 0 -102.334 9.33301 -155.001 28v205c39.333 -16.667 78 -25 116 -25c70.667 0 136.334 82.667 197.001 248zM473 1155
l127 240h201l-191 -240h-137z"/>
            <glyph glyph-name="thorn" unicode="&#xfe;" horiz-adv-x="1157"
                   d="M170 -377v1778h246v-389c58.667 10.667 114.667 16 168 16c152.667 0 270 -44.333 352 -133s123 -216.334 123 -383.001s-41 -294.334 -123 -383.001s-199.333 -133 -352 -133c-53.333 0 -109.333 5.33301 -168 16v-389h-246zM416 207.002c46 -11.333 99 -17 159 -17
c76.667 0 135.167 23.667 175.5 71s60.5 131 60.5 251s-20.167 203.667 -60.5 251s-98.833 71 -175.5 71c-60 0 -113 -5.66699 -159 -17v-610z"/>
            <glyph glyph-name="ydieresis" unicode="&#xff;" horiz-adv-x="1107"
                   d="M63 1022l261 0.000976562l229 -713l225 713h260l-389 -1047c-54.667 -148.667 -114 -248.834 -178 -300.501s-130.333 -77.5 -199 -77.5c-50.667 0 -102.334 9.33301 -155.001 28v205c39.333 -16.667 78 -25 116 -25c70.667 0 136.334 82.667 197.001 248zM285 1155v195
h207v-195h-207zM612 1155v195h207v-195h-207z"/>
            <glyph glyph-name="OE" unicode="&#x152;" horiz-adv-x="2074"
                   d="M123 682c0 112 13 210.33 39 294.997s59.5 152.167 100.5 202.5s90.5 91.333 148.5 123s114.667 52.834 170 63.501s115 16 179 16c98 0 188 -14.333 270 -43v27h909v-221h-663v-346h575v-232h-575v-346h663v-221h-909v27c-76.667 -28.667 -166.667 -43 -270 -43
c-64 0 -123.667 5.33301 -179 16s-112 31.834 -170 63.501s-107.5 72.334 -148.5 122.001s-74.5 117.167 -100.5 202.5s-39 183.333 -39 294zM369 683.997c0 -102.667 11.167 -187.667 33.5 -255s55 -116.833 98 -148.5s86.833 -53.167 131.5 -64.5s98.334 -17 161.001 -17
c96.667 0 175.667 12.333 237 37v884c-74 30 -153 45 -237 45c-62.667 0 -116.334 -5.33301 -161.001 -16s-88.5 -31.834 -131.5 -63.501s-75.667 -81.167 -98 -148.5s-33.5 -151.666 -33.5 -252.999z"/>
            <glyph glyph-name="oe" unicode="&#x153;" horiz-adv-x="1853"
                   d="M98 512c0 169.333 41.6641 299.331 124.997 389.998s203 136 359 136c152.667 0 271.334 -44.333 356.001 -133c79.333 90 192 135 338 135c150 0 263.667 -47.667 341 -143s116 -212.666 116 -351.999c0 -57.333 -1.33301 -99.666 -4 -126.999h-658
c6.66699 -88.667 33.334 -148 80.001 -178s106.667 -45 180 -45c120 0 236 26.333 348 79v-198c-113.333 -61.333 -241.666 -92 -384.999 -92c-155.333 0 -274 45 -356 135c-82 -88.667 -200.833 -133 -356.5 -133s-275.167 45.333 -358.5 136s-125 220.667 -125 390z
M343.997 511.998c0 -126.667 19.5 -212.334 58.5 -257.001s98.667 -67 179 -67s140 22.333 179 67s58.5 130.334 58.5 257.001s-19.5 212.334 -58.5 257.001s-98.667 67 -179 67s-140 -22.333 -179 -67s-58.5 -130.334 -58.5 -257.001zM1071 587.998h411.999
c-6.66699 70.667 -27.5 130.334 -62.5 179.001s-83.167 73 -144.5 73s-109.166 -19.833 -143.499 -59.5s-54.833 -103.834 -61.5 -192.501z"/>
            <glyph glyph-name="Ydieresis" unicode="&#x178;" horiz-adv-x="1368"
                   d="M25 1366h297l362 -555l360 555h297l-534 -780v-586h-246v586zM418 1483v194h207v-194h-207zM745 1483v194h207v-194h-207z"/>
            <glyph glyph-name="circumflex" unicode="&#x2c6;" horiz-adv-x="874"
                   d="M201 1155l186 250h98l189 -250h-164l-74 115l-74 -115h-161z"/>
            <glyph glyph-name="tilde" unicode="&#x2dc;" horiz-adv-x="1058"
                   d="M215 1153v156c38 45.333 79.333 70 124 74c7.33301 0.666992 14.666 1 21.999 1c36.667 0 71.667 -8.66699 105 -26l122 -60c34 -16.667 68.667 -25 104 -25c7.33301 0 14.666 0.333008 21.999 1c44 4 85.333 28.667 124 74v-156c-38 -45.333 -79 -70 -123 -74
c-7.33301 -0.666992 -14.666 -1 -21.999 -1c-36 0 -71 8.33301 -105 25l-122 60c-33.333 17.333 -68.333 26 -105 26c-7.33301 0 -14.666 -0.333008 -21.999 -1c-44.667 -4 -86 -28.667 -124 -74z"/>
            <glyph glyph-name="endash" unicode="&#x2013;" horiz-adv-x="1146"
                   d="M141 500v192h860v-192h-860z"/>
            <glyph glyph-name="emdash" unicode="&#x2014;" horiz-adv-x="1824"
                   d="M162 500v192h1501v-192h-1501z"/>
            <glyph glyph-name="quoteleft" unicode="&#x2018;" horiz-adv-x="552"
                   d="M96 1384h215l152 -401h-184z"/>
            <glyph glyph-name="quoteright" unicode="&#x2019;" horiz-adv-x="552"
                   d="M96 983l152 401h215l-182 -401h-185z"/>
            <glyph glyph-name="quotesinglbase" unicode="&#x201a;" horiz-adv-x="651"
                   d="M147 -229l152 401h215l-182 -401h-185z"/>
            <glyph glyph-name="quotedblleft" unicode="&#x201c;" horiz-adv-x="858"
                   d="M96 1384h215l152 -401h-184zM408 1384h215l151 -401h-184z"/>
            <glyph glyph-name="quotedblright" unicode="&#x201d;" horiz-adv-x="858"
                   d="M96 983l152 401h215l-182 -401h-185zM408 983l151 401h215l-182 -401h-184z"/>
            <glyph glyph-name="quotedblbase" unicode="&#x201e;" horiz-adv-x="948"
                   d="M147 -229l152 401h215l-182 -401h-185zM459 -229l151 401h215l-182 -401h-184z"/>
            <glyph glyph-name="bullet" unicode="&#x2022;" horiz-adv-x="890"
                   d="M172 661.5c0 75 26.667 139.167 80 192.5s118 80 194 80c75.333 0 139.333 -26.667 192 -80s79 -117.5 79 -192.5s-26.333 -139.167 -79 -192.5s-116.667 -80 -192 -80c-76.667 0 -141.5 26.667 -194.5 80s-79.5 117.5 -79.5 192.5z"/>
            <glyph glyph-name="ellipsis" unicode="&#x2026;" horiz-adv-x="1726"
                   d="M219 0v227h240v-227h-240zM743 0v227h240v-227h-240zM1266 0v227h239v-227h-239z"/>
            <glyph glyph-name="guilsinglleft" unicode="&#x2039;" horiz-adv-x="770"
                   d="M63 522l347 389h286l-372 -389l372 -391h-286z"/>
            <glyph glyph-name="guilsinglright" unicode="&#x203a;" horiz-adv-x="815"
                   d="M111 131l372 389l-372 391h286l346 -391l-346 -389h-286z"/>
            <glyph glyph-name="Euro" unicode="&#x20ac;"
                   d="M102 412v178.002h162c-2.66699 38 -4 69.333 -4 94s1.33301 56 4 94h-162v178h191c76.667 285.333 278 428 604 428c139.333 0 277.333 -27 414 -81v-230c-129.333 60 -259.666 90 -390.999 90c-91.333 0 -168.5 -14.333 -231.5 -43s-110.167 -83.334 -141.5 -164.001
h530v-178h-567c-2.66699 -38 -4 -69.333 -4 -94s1.33301 -56 4 -94h567v-178h-530c31.333 -80.667 78.333 -135.334 141 -164.001s140 -43 232 -43c131.333 0 261.666 30 390.999 90v-229c-136.667 -54.667 -274.667 -82 -414 -82c-328 0 -529.333 142.667 -604 428h-191z
"/>
            <glyph glyph-name="trademark" unicode="&#x2122;" horiz-adv-x="1572"
                   d="M100 1245v121h559v-121h-219v-561h-121v561h-219zM762 684v682h137l197 -285l196 285h138v-682h-123v506l-211 -303l-211 303v-506h-123z"/>
            <glyph glyph-name="uniE000" unicode="&#xe000;" horiz-adv-x="1020"
                   d="M0 1020h1020v-1020h-1020v1020z"/>
            <glyph glyph-name="uniFB01" unicode="&#xfb01;" horiz-adv-x="1333"
                   d="M82 811v211.001h174c1.33301 282.667 128.333 424 381 424c32.667 0 66 -3.33301 100 -10v-193c-24.667 2.66699 -43 4 -55 4c-64 0 -110 -15.333 -138 -46s-42 -90.334 -42 -179.001h235v-211h-235v-811h-246v811h-174zM950 1161h252v225h-252v-225zM954 0.000976562
h246v1022h-246v-1022z"/>
            <glyph glyph-name="uniFB02" unicode="&#xfb02;" horiz-adv-x="1333"
                   d="M82 811v211.001h174c1.33301 282.667 128.333 424 381 424c32.667 0 66 -3.33301 100 -10v-193c-24.667 2.66699 -43 4 -55 4c-64 0 -110 -15.333 -138 -46s-42 -90.334 -42 -179.001h235v-211h-235v-811h-246v811h-174zM958 0.000976562h246v1411h-246v-1411z"/>
            <glyph glyph-name="uniFB03" unicode="&#xfb03;" horiz-adv-x="2100"
                   d="M1655 1161v225h251v-225h-251zM1659 0v1022h245v-1022h-245zM813 811v211.001h174c1.33301 282.667 128.333 424 381 424c32.667 0 66 -3.33301 100 -10v-193c-24.667 2.66699 -43 4 -55 4c-64 0 -110 -15.333 -138 -46s-42 -90.334 -42 -179.001h235v-211h-235v-811
h-246v811h-174zM82 811.001v211.001h174c1.33301 282.667 128.333 424 381 424c32.667 0 66 -3.33301 100 -10v-193c-24.667 2.66699 -43 4 -55 4c-64 0 -110 -15.333 -138 -46s-42 -90.334 -42 -179.001h235v-211h-235v-811h-246v811h-174z"/>
            <glyph glyph-name="uniFB04" unicode="&#xfb04;" horiz-adv-x="2121"
                   d="M1669 0v1411h246v-1411h-246zM813 811v211.001h174c1.33301 282.667 128.333 424 381 424c32.667 0 66 -3.33301 100 -10v-193c-24.667 2.66699 -43 4 -55 4c-64 0 -110 -15.333 -138 -46s-42 -90.334 -42 -179.001h235v-211h-235v-811h-246v811h-174zM82 811.001
v211.001h174c1.33301 282.667 128.333 424 381 424c32.667 0 66 -3.33301 100 -10v-193c-24.667 2.66699 -43 4 -55 4c-64 0 -110 -15.333 -138 -46s-42 -90.334 -42 -179.001h235v-211h-235v-811h-246v811h-174z"/>
            <glyph glyph-name=".null" horiz-adv-x="0"
            />
            <glyph glyph-name="nonmarkingreturn" horiz-adv-x="682"
            />
            </font>
</defs>
</svg>
